<svg aria-roledescription="mindmap" role="graphics-document document" viewBox="5 5 918.1005859375 399.8883361816406" style="max-width: 100%;" xmlns="http://www.w3.org/2000/svg" width="100%" id="graph-div" height="100%" xmlns:xlink="http://www.w3.org/1999/xlink"><style>@import url("https://cdnjs.cloudflare.com/ajax/libs/font-awesome/6.2.1/css/all.min.css");'</style><style>#graph-div{font-family:"trebuchet ms",verdana,arial,sans-serif;font-size:16px;fill:#333;}#graph-div .error-icon{fill:#552222;}#graph-div .error-text{fill:#552222;stroke:#552222;}#graph-div .edge-thickness-normal{stroke-width:2px;}#graph-div .edge-thickness-thick{stroke-width:3.5px;}#graph-div .edge-pattern-solid{stroke-dasharray:0;}#graph-div .edge-pattern-dashed{stroke-dasharray:3;}#graph-div .edge-pattern-dotted{stroke-dasharray:2;}#graph-div .marker{fill:#333333;stroke:#333333;}#graph-div .marker.cross{stroke:#333333;}#graph-div svg{font-family:"trebuchet ms",verdana,arial,sans-serif;font-size:16px;}#graph-div .edge{stroke-width:3;}#graph-div .section--1 rect,#graph-div .section--1 path,#graph-div .section--1 circle,#graph-div .section--1 polygon,#graph-div .section--1 path{fill:hsl(240, 100%, 76.2745098039%);}#graph-div .section--1 text{fill:#ffffff;}#graph-div .node-icon--1{font-size:40px;color:#ffffff;}#graph-div .section-edge--1{stroke:hsl(240, 100%, 76.2745098039%);}#graph-div .edge-depth--1{stroke-width:17;}#graph-div .section--1 line{stroke:hsl(60, 100%, 86.2745098039%);stroke-width:3;}#graph-div .disabled,#graph-div .disabled circle,#graph-div .disabled text{fill:lightgray;}#graph-div .disabled text{fill:#efefef;}#graph-div .section-0 rect,#graph-div .section-0 path,#graph-div .section-0 circle,#graph-div .section-0 polygon,#graph-div .section-0 path{fill:hsl(60, 100%, 73.5294117647%);}#graph-div .section-0 text{fill:black;}#graph-div .node-icon-0{font-size:40px;color:black;}#graph-div .section-edge-0{stroke:hsl(60, 100%, 73.5294117647%);}#graph-div .edge-depth-0{stroke-width:14;}#graph-div .section-0 line{stroke:hsl(240, 100%, 83.5294117647%);stroke-width:3;}#graph-div .disabled,#graph-div .disabled circle,#graph-div .disabled text{fill:lightgray;}#graph-div .disabled text{fill:#efefef;}#graph-div .section-1 rect,#graph-div .section-1 path,#graph-div .section-1 circle,#graph-div .section-1 polygon,#graph-div .section-1 path{fill:hsl(80, 100%, 76.2745098039%);}#graph-div .section-1 text{fill:black;}#graph-div .node-icon-1{font-size:40px;color:black;}#graph-div .section-edge-1{stroke:hsl(80, 100%, 76.2745098039%);}#graph-div .edge-depth-1{stroke-width:11;}#graph-div .section-1 line{stroke:hsl(260, 100%, 86.2745098039%);stroke-width:3;}#graph-div .disabled,#graph-div .disabled circle,#graph-div .disabled text{fill:lightgray;}#graph-div .disabled text{fill:#efefef;}#graph-div .section-2 rect,#graph-div .section-2 path,#graph-div .section-2 circle,#graph-div .section-2 polygon,#graph-div .section-2 path{fill:hsl(270, 100%, 76.2745098039%);}#graph-div .section-2 text{fill:#ffffff;}#graph-div .node-icon-2{font-size:40px;color:#ffffff;}#graph-div .section-edge-2{stroke:hsl(270, 100%, 76.2745098039%);}#graph-div .edge-depth-2{stroke-width:8;}#graph-div .section-2 line{stroke:hsl(90, 100%, 86.2745098039%);stroke-width:3;}#graph-div .disabled,#graph-div .disabled circle,#graph-div .disabled text{fill:lightgray;}#graph-div .disabled text{fill:#efefef;}#graph-div .section-3 rect,#graph-div .section-3 path,#graph-div .section-3 circle,#graph-div .section-3 polygon,#graph-div .section-3 path{fill:hsl(300, 100%, 76.2745098039%);}#graph-div .section-3 text{fill:black;}#graph-div .node-icon-3{font-size:40px;color:black;}#graph-div .section-edge-3{stroke:hsl(300, 100%, 76.2745098039%);}#graph-div .edge-depth-3{stroke-width:5;}#graph-div .section-3 line{stroke:hsl(120, 100%, 86.2745098039%);stroke-width:3;}#graph-div .disabled,#graph-div .disabled circle,#graph-div .disabled text{fill:lightgray;}#graph-div .disabled text{fill:#efefef;}#graph-div .section-4 rect,#graph-div .section-4 path,#graph-div .section-4 circle,#graph-div .section-4 polygon,#graph-div .section-4 path{fill:hsl(330, 100%, 76.2745098039%);}#graph-div .section-4 text{fill:black;}#graph-div .node-icon-4{font-size:40px;color:black;}#graph-div .section-edge-4{stroke:hsl(330, 100%, 76.2745098039%);}#graph-div .edge-depth-4{stroke-width:2;}#graph-div .section-4 line{stroke:hsl(150, 100%, 86.2745098039%);stroke-width:3;}#graph-div .disabled,#graph-div .disabled circle,#graph-div .disabled text{fill:lightgray;}#graph-div .disabled text{fill:#efefef;}#graph-div .section-5 rect,#graph-div .section-5 path,#graph-div .section-5 circle,#graph-div .section-5 polygon,#graph-div .section-5 path{fill:hsl(0, 100%, 76.2745098039%);}#graph-div .section-5 text{fill:black;}#graph-div .node-icon-5{font-size:40px;color:black;}#graph-div .section-edge-5{stroke:hsl(0, 100%, 76.2745098039%);}#graph-div .edge-depth-5{stroke-width:-1;}#graph-div .section-5 line{stroke:hsl(180, 100%, 86.2745098039%);stroke-width:3;}#graph-div .disabled,#graph-div .disabled circle,#graph-div .disabled text{fill:lightgray;}#graph-div .disabled text{fill:#efefef;}#graph-div .section-6 rect,#graph-div .section-6 path,#graph-div .section-6 circle,#graph-div .section-6 polygon,#graph-div .section-6 path{fill:hsl(30, 100%, 76.2745098039%);}#graph-div .section-6 text{fill:black;}#graph-div .node-icon-6{font-size:40px;color:black;}#graph-div .section-edge-6{stroke:hsl(30, 100%, 76.2745098039%);}#graph-div .edge-depth-6{stroke-width:-4;}#graph-div .section-6 line{stroke:hsl(210, 100%, 86.2745098039%);stroke-width:3;}#graph-div .disabled,#graph-div .disabled circle,#graph-div .disabled text{fill:lightgray;}#graph-div .disabled text{fill:#efefef;}#graph-div .section-7 rect,#graph-div .section-7 path,#graph-div .section-7 circle,#graph-div .section-7 polygon,#graph-div .section-7 path{fill:hsl(90, 100%, 76.2745098039%);}#graph-div .section-7 text{fill:black;}#graph-div .node-icon-7{font-size:40px;color:black;}#graph-div .section-edge-7{stroke:hsl(90, 100%, 76.2745098039%);}#graph-div .edge-depth-7{stroke-width:-7;}#graph-div .section-7 line{stroke:hsl(270, 100%, 86.2745098039%);stroke-width:3;}#graph-div .disabled,#graph-div .disabled circle,#graph-div .disabled text{fill:lightgray;}#graph-div .disabled text{fill:#efefef;}#graph-div .section-8 rect,#graph-div .section-8 path,#graph-div .section-8 circle,#graph-div .section-8 polygon,#graph-div .section-8 path{fill:hsl(150, 100%, 76.2745098039%);}#graph-div .section-8 text{fill:black;}#graph-div .node-icon-8{font-size:40px;color:black;}#graph-div .section-edge-8{stroke:hsl(150, 100%, 76.2745098039%);}#graph-div .edge-depth-8{stroke-width:-10;}#graph-div .section-8 line{stroke:hsl(330, 100%, 86.2745098039%);stroke-width:3;}#graph-div .disabled,#graph-div .disabled circle,#graph-div .disabled text{fill:lightgray;}#graph-div .disabled text{fill:#efefef;}#graph-div .section-9 rect,#graph-div .section-9 path,#graph-div .section-9 circle,#graph-div .section-9 polygon,#graph-div .section-9 path{fill:hsl(180, 100%, 76.2745098039%);}#graph-div .section-9 text{fill:black;}#graph-div .node-icon-9{font-size:40px;color:black;}#graph-div .section-edge-9{stroke:hsl(180, 100%, 76.2745098039%);}#graph-div .edge-depth-9{stroke-width:-13;}#graph-div .section-9 line{stroke:hsl(0, 100%, 86.2745098039%);stroke-width:3;}#graph-div .disabled,#graph-div .disabled circle,#graph-div .disabled text{fill:lightgray;}#graph-div .disabled text{fill:#efefef;}#graph-div .section-10 rect,#graph-div .section-10 path,#graph-div .section-10 circle,#graph-div .section-10 polygon,#graph-div .section-10 path{fill:hsl(210, 100%, 76.2745098039%);}#graph-div .section-10 text{fill:black;}#graph-div .node-icon-10{font-size:40px;color:black;}#graph-div .section-edge-10{stroke:hsl(210, 100%, 76.2745098039%);}#graph-div .edge-depth-10{stroke-width:-16;}#graph-div .section-10 line{stroke:hsl(30, 100%, 86.2745098039%);stroke-width:3;}#graph-div .disabled,#graph-div .disabled circle,#graph-div .disabled text{fill:lightgray;}#graph-div .disabled text{fill:#efefef;}#graph-div .section-root rect,#graph-div .section-root path,#graph-div .section-root circle,#graph-div .section-root polygon{fill:hsl(240, 100%, 46.2745098039%);}#graph-div .section-root text{fill:#ffffff;}#graph-div .icon-container{height:100%;display:flex;justify-content:center;align-items:center;}#graph-div .edge{fill:none;}#graph-div :root{--mermaid-font-family:"trebuchet ms",verdana,arial,sans-serif;}</style><g></g><g></g><g class="mindmap-edges"><path class="edge section-edge-0 edge-depth-1" d="M 423.1877146973989,305.95064275157733 L 404.23489064861724,335.1731588040951 L385.28206659983556,364.3956748566129"></path><path class="edge section-edge-0 edge-depth-1" d="M 443.60488266039573,302.01532481803645 L 480.2589414995158,327.8856853938056 L516.9130003386358,353.75604596957476"></path><path class="edge section-edge-0 edge-depth-0" d="M 416.7214143954561,214.04589667562487 L 422.6754071755902,246.3302132011352 L428.62939995572424,278.6145297266455"></path><path class="edge section-edge-1 edge-depth-1" d="M 521.0869193208223,117.88528034730297 L 531.318510836613,87.01551914077223 L541.5501023524037,56.14575793424149"></path><path class="edge section-edge-1 edge-depth-1" d="M 530.8310318178179,128.14706253561224 L 581.448855314976,114.23028368904582 L632.066678812134,100.3135048424794"></path><path class="edge section-edge-1 edge-depth-0" d="M 426.5420557874758,191.06542284016845 L 465.1843298089643,165.7091198252373 L503.8266038304528,140.35281681030617"></path><path class="edge section-edge-2 edge-depth-1" d="M 231.8406677794111,229.44537583421382 L 208.62221269123262,203.38639128377193 L185.40375760305415,177.32740673333004"></path><path class="edge section-edge-2 edge-depth-1" d="M 244.4554064148804,255.41133762530674 L 249.6853492549281,284.7076751875983 L254.9152920949758,314.00401274988985"></path><path class="edge section-edge-2 edge-depth-1" d="M 226.95459657133677,238.6346816641655 L 157.44285413129904,229.23482674779135 L87.93111169126132,219.8349718314172"></path><path class="edge section-edge-2 edge-depth-1" d="M 228.26449095046576,247.06873631646215 L 177.37949838684386,271.1843438148469 L126.49450582322198,295.2999513132317"></path><path class="edge section-edge-2 edge-depth-0" d="M 399.4156375345117,202.79737915983384 L 327.91011939815246,219.96972427314975 L256.4046012617931,237.14206938646566"></path><path class="edge section-edge-3 edge-depth-1" d="M 627.714007101187,223.43526971248613 L 611.0627060587897,250.18655255976284 L594.4114050163923,276.9378354070396"></path><path class="edge section-edge-3 edge-depth-1" d="M 647.2802759275974,220.16212444673477 L 679.2799217752669,246.17334194981783 L711.2795676229364,272.1845594529008"></path><path class="edge section-edge-3 edge-depth-1" d="M 650.6053046744329,211.72932713455862 L 744.5248976795151,218.184982475055 L838.4444906845973,224.64063781555143"></path><path class="edge section-edge-3 edge-depth-1" d="M 649.3274636803542,204.56311266666307 L 700.932921906485,181.42164700257558 L752.5383801326159,158.28018133848815"></path><path class="edge section-edge-3 edge-depth-0" d="M 428.9811135000931,200.0655715381944 L 524.820775575569,204.9976869277364 L620.6604376510448,209.9298023172784"></path><path class="edge section-edge-4 edge-depth-1" d="M 311.73261338591,118.79856315796147 L 247.95559884864264,99.12608540292021 L184.17858431137526,79.45360764787895"></path><path class="edge section-edge-4 edge-depth-1" d="M 321.7106368675434,108.86615626842132 L 312.3637944771397,78.06383872154291 L303.016952086736,47.26152117466448"></path><path class="edge section-edge-4 edge-depth-1" d="M 338.644634234919,115.04775809610612 L 375.3698245661002,91.18767388782706 L412.0950148972814,67.327589679548"></path><path class="edge section-edge-4 edge-depth-0" d="M 402.6569664300264,189.48067260143569 L 370.03357511210186,161.25726216472677 L337.4101837941773,133.03385172801785"></path></g><g class="mindmap-nodes"><g transform="translate(357.3134367837067, 181.38684688636772)" class="mindmap-node section--1 section-root"><g transform="translate(56.6875, 17.9078125)"><circle r="56.6875" class="node-bkg node-circle" id="node-0"></circle></g><g transform="translate(56.6875, 5)"><text text-anchor="middle" dominant-baseline="middle" alignment-baseline="middle" dy="1em"><tspan dy="1em" x="0">CSS   Flexbox</tspan></text></g></g><g transform="translate(383.55300256747364, 275.45795451590266)" class="mindmap-node section-0"><g><path d="M0 30.815624999999997 v-25.815624999999997 q0,-5 5,-5 h85.59375 q5,0 5,5 v30.815624999999997 H0 Z" class="node-bkg node-no-border" id="node-1"></path><line y2="35.815625" x2="95.59375" y1="35.815625" x1="0" class="node-line-0"></line></g><g transform="translate(47.796875, 5)"><text text-anchor="middle" dominant-baseline="middle" alignment-baseline="middle" dy="1em"><tspan dy="1em" x="0">Elementos</tspan></text></g></g><g transform="translate(307.97146622976084, 359.07273809228764)" class="mindmap-node section-0"><g><path d="M0 30.815624999999997 v-25.815624999999997 q0,-5 5,-5 h128.296875 q5,0 5,5 v30.815624999999997 H0 Z" class="node-bkg node-no-border" id="node-2"></path><line y2="35.815625" x2="138.296875" y1="35.815625" x1="0" class="node-line-0"></line></g><g transform="translate(69.1484375, 5)"><text text-anchor="middle" dominant-baseline="middle" alignment-baseline="middle" dy="1em"><tspan dy="1em" x="0">Contenedor   Flex</tspan></text></g></g><g transform="translate(482.26956793155796, 344.4977912717086)" class="mindmap-node section-0"><g><path d="M0 30.815624999999997 v-25.815624999999997 q0,-5 5,-5 h83.796875 q5,0 5,5 v30.815624999999997 H0 Z" class="node-bkg node-no-border" id="node-3"></path><line y2="35.815625" x2="93.796875" y1="35.815625" x1="0" class="node-line-0"></line></g><g transform="translate(46.8984375, 5)"><text text-anchor="middle" dominant-baseline="middle" alignment-baseline="middle" dy="1em"><tspan dy="1em" x="0">Items   Flex</tspan></text></g></g><g transform="translate(490.8052228342219, 114.21576776410689)" class="mindmap-node section-1"><g><path d="M0 30.815624999999997 v-25.815624999999997 q0,-5 5,-5 h41.125 q5,0 5,5 v30.815624999999997 H0 Z" class="node-bkg node-no-border" id="node-4"></path><line y2="35.815625" x2="51.125" y1="35.815625" x1="0" class="node-line-1"></line></g><g transform="translate(25.5625, 5)"><text text-anchor="middle" dominant-baseline="middle" alignment-baseline="middle" dy="1em"><tspan dy="1em" x="0">Ejes</tspan></text></g></g><g transform="translate(505.589611339004, 23.999645517437557)" class="mindmap-node section-1"><g><path d="M0 30.815624999999997 v-25.815624999999997 q0,-5 5,-5 h71.359375 q5,0 5,5 v30.815624999999997 H0 Z" class="node-bkg node-no-border" id="node-5"></path><line y2="35.815625" x2="81.359375" y1="35.815625" x1="0" class="node-line-1"></line></g><g transform="translate(40.6796875, 5)"><text text-anchor="middle" dominant-baseline="middle" alignment-baseline="middle" dy="1em"><tspan dy="1em" x="0">Principal</tspan></text></g></g><g transform="translate(595.03780029573, 78.42917461398474)" class="mindmap-node section-1"><g><path d="M0 30.815624999999997 v-25.815624999999997 q0,-5 5,-5 h92.984375 q5,0 5,5 v30.815624999999997 H0 Z" class="node-bkg node-no-border" id="node-6"></path><line y2="35.815625" x2="102.984375" y1="35.815625" x1="0" class="node-line-1"></line></g><g transform="translate(51.4921875, 5)"><text text-anchor="middle" dominant-baseline="middle" alignment-baseline="middle" dy="1em"><tspan dy="1em" x="0">Transversal</tspan></text></g></g><g transform="translate(190.0224270125981, 222.73697665993177)" class="mindmap-node section-2"><g><path d="M0 30.815624999999997 v-25.815624999999997 q0,-5 5,-5 h93.59375 q5,0 5,5 v30.815624999999997 H0 Z" class="node-bkg node-no-border" id="node-7"></path><line y2="35.815625" x2="103.59375" y1="35.815625" x1="0" class="node-line-2"></line></g><g transform="translate(51.796875, 5)"><text text-anchor="middle" dominant-baseline="middle" alignment-baseline="middle" dy="1em"><tspan dy="1em" x="0">Direcciones</tspan></text></g></g><g transform="translate(149.19856086986715, 148.22018090761208)" class="mindmap-node section-2"><g><path d="M0 30.815624999999997 v-25.815624999999997 q0,-5 5,-5 h42.453125 q5,0 5,5 v30.815624999999997 H0 Z" class="node-bkg node-no-border" id="node-8"></path><line y2="35.815625" x2="52.453125" y1="35.815625" x1="0" class="node-line-2"></line></g><g transform="translate(26.2265625, 5)"><text text-anchor="middle" dominant-baseline="middle" alignment-baseline="middle" dy="1em"><tspan dy="1em" x="0">Row</tspan></text></g></g><g transform="translate(219.9810839972581, 310.86274871526484)" class="mindmap-node section-2"><g><path d="M0 30.815624999999997 v-25.815624999999997 q0,-5 5,-5 h65.140625 q5,0 5,5 v30.815624999999997 H0 Z" class="node-bkg node-no-border" id="node-9"></path><line y2="35.815625" x2="75.140625" y1="35.815625" x1="0" class="node-line-2"></line></g><g transform="translate(37.5703125, 5)"><text text-anchor="middle" dominant-baseline="middle" alignment-baseline="middle" dy="1em"><tspan dy="1em" x="0">Column</tspan></text></g></g><g transform="translate(15, 199.9170518356509)" class="mindmap-node section-2"><g><path d="M0 30.815624999999997 v-25.815624999999997 q0,-5 5,-5 h106.1328125 q5,0 5,5 v30.815624999999997 H0 Z" class="node-bkg node-no-border" id="node-10"></path><line y2="35.815625" x2="116.1328125" y1="35.815625" x1="0" class="node-line-2"></line></g><g transform="translate(58.06640625, 5)"><text text-anchor="middle" dominant-baseline="middle" alignment-baseline="middle" dy="1em"><tspan dy="1em" x="0">Row   Reverse</tspan></text></g></g><g transform="translate(43.31078851108964, 283.81608596976207)" class="mindmap-node section-2"><g><path d="M0 30.815624999999997 v-25.815624999999997 q0,-5 5,-5 h129.2578125 q5,0 5,5 v30.815624999999997 H0 Z" class="node-bkg node-no-border" id="node-11"></path><line y2="35.815625" x2="139.2578125" y1="35.815625" x1="0" class="node-line-2"></line></g><g transform="translate(69.62890625, 5)"><text text-anchor="middle" dominant-baseline="middle" alignment-baseline="middle" dy="1em"><tspan dy="1em" x="0">Column   Reverse</tspan></text></g></g><g transform="translate(536.3515518674312, 192.79290196910506)" class="mindmap-node section-3"><g><path d="M0 30.815624999999997 v-25.815624999999997 q0,-5 5,-5 h188.578125 q5,0 5,5 v30.815624999999997 H0 Z" class="node-bkg node-no-border" id="node-12"></path><line y2="35.815625" x2="198.578125" y1="35.815625" x1="0" class="node-line-3"></line></g><g transform="translate(99.2890625, 5)"><text text-anchor="middle" dominant-baseline="middle" alignment-baseline="middle" dy="1em"><tspan dy="1em" x="0">Propiedades   Contenedor</tspan></text></g></g><g transform="translate(551.5785477501481, 271.7645781504207)" class="mindmap-node section-3"><g><path d="M0 30.815624999999997 v-25.815624999999997 q0,-5 5,-5 h59.8125 q5,0 5,5 v30.815624999999997 H0 Z" class="node-bkg node-no-border" id="node-13"></path><line y2="35.815625" x2="69.8125" y1="35.815625" x1="0" class="node-line-3"></line></g><g transform="translate(34.90625, 5)"><text text-anchor="middle" dominant-baseline="middle" alignment-baseline="middle" dy="1em"><tspan dy="1em" x="0">display</tspan></text></g></g><g transform="translate(668.0051666831025, 263.7381569305305)" class="mindmap-node section-3"><g><path d="M0 30.815624999999997 v-25.815624999999997 q0,-5 5,-5 h99.828125 q5,0 5,5 v30.815624999999997 H0 Z" class="node-bkg node-no-border" id="node-14"></path><line y2="35.815625" x2="109.828125" y1="35.815625" x1="0" class="node-line-3"></line></g><g transform="translate(54.9140625, 5)"><text text-anchor="middle" dominant-baseline="middle" alignment-baseline="middle" dy="1em"><tspan dy="1em" x="0">flex   direction</tspan></text></g></g><g transform="translate(793.717774741599, 207.76143798100497)" class="mindmap-node section-3"><g><path d="M0 30.815624999999997 v-25.815624999999997 q0,-5 5,-5 h109.3828125 q5,0 5,5 v30.815624999999997 H0 Z" class="node-bkg node-no-border" id="node-15"></path><line y2="35.815625" x2="119.3828125" y1="35.815625" x1="0" class="node-line-3"></line></g><g transform="translate(59.69140625, 5)"><text text-anchor="middle" dominant-baseline="middle" alignment-baseline="middle" dy="1em"><tspan dy="1em" x="0">justify   content</tspan></text></g></g><g transform="translate(717.9830419455388, 134.23476703604615)" class="mindmap-node section-3"><g><path d="M0 30.815624999999997 v-25.815624999999997 q0,-5 5,-5 h86.484375 q5,0 5,5 v30.815624999999997 H0 Z" class="node-bkg node-no-border" id="node-16"></path><line y2="35.815625" x2="96.484375" y1="35.815625" x1="0" class="node-line-3"></line></g><g transform="translate(48.2421875, 5)"><text text-anchor="middle" dominant-baseline="middle" alignment-baseline="middle" dy="1em"><tspan dy="1em" x="0">align   items</tspan></text></g></g><g transform="translate(249.363088440497, 105.3120524430858)" class="mindmap-node section-4"><g><path d="M0 30.815624999999997 v-25.815624999999997 q0,-5 5,-5 h143.40625 q5,0 5,5 v30.815624999999997 H0 Z" class="node-bkg node-no-border" id="node-17"></path><line y2="35.815625" x2="153.40625" y1="35.815625" x1="0" class="node-line-4"></line></g><g transform="translate(76.703125, 5)"><text text-anchor="middle" dominant-baseline="middle" alignment-baseline="middle" dy="1em"><tspan dy="1em" x="0">Propiedades   Items</tspan></text></g></g><g transform="translate(127.61060925678828, 57.12449336275461)" class="mindmap-node section-4"><g><path d="M0 30.815624999999997 v-25.815624999999997 q0,-5 5,-5 h74.46875 q5,0 5,5 v30.815624999999997 H0 Z" class="node-bkg node-no-border" id="node-18"></path><line y2="35.815625" x2="84.46875" y1="35.815625" x1="0" class="node-line-4"></line></g><g transform="translate(42.234375, 5)"><text text-anchor="middle" dominant-baseline="middle" alignment-baseline="middle" dy="1em"><tspan dy="1em" x="0">flex   grow</tspan></text></g></g><g transform="translate(252.14965676378245, 15)" class="mindmap-node section-4"><g><path d="M0 30.815624999999997 v-25.815624999999997 q0,-5 5,-5 h83.0234375 q5,0 5,5 v30.815624999999997 H0 Z" class="node-bkg node-no-border" id="node-19"></path><line y2="35.815625" x2="93.0234375" y1="35.815625" x1="0" class="node-line-4"></line></g><g transform="translate(46.51171875, 5)"><text text-anchor="middle" dominant-baseline="middle" alignment-baseline="middle" dy="1em"><tspan dy="1em" x="0">flex   shrink</tspan></text></g></g><g transform="translate(381.3218731917034, 41.247670332568305)" class="mindmap-node section-4"><g><path d="M0 30.815624999999997 v-25.815624999999997 q0,-5 5,-5 h76.703125 q5,0 5,5 v30.815624999999997 H0 Z" class="node-bkg node-no-border" id="node-20"></path><line y2="35.815625" x2="86.703125" y1="35.815625" x1="0" class="node-line-4"></line></g><g transform="translate(43.3515625, 5)"><text text-anchor="middle" dominant-baseline="middle" alignment-baseline="middle" dy="1em"><tspan dy="1em" x="0">flex   basis</tspan></text></g></g></g></svg>