<svg aria-roledescription="mindmap" role="graphics-document document" viewBox="5 5 874.4281616210938 587.6993408203125" style="max-width: 100%;" xmlns="http://www.w3.org/2000/svg" width="100%" id="graph-div" height="100%" xmlns:xlink="http://www.w3.org/1999/xlink"><style>@import url("https://cdnjs.cloudflare.com/ajax/libs/font-awesome/6.2.1/css/all.min.css");'</style><style>#graph-div{font-family:"trebuchet ms",verdana,arial,sans-serif;font-size:16px;fill:#333;}#graph-div .error-icon{fill:#552222;}#graph-div .error-text{fill:#552222;stroke:#552222;}#graph-div .edge-thickness-normal{stroke-width:2px;}#graph-div .edge-thickness-thick{stroke-width:3.5px;}#graph-div .edge-pattern-solid{stroke-dasharray:0;}#graph-div .edge-pattern-dashed{stroke-dasharray:3;}#graph-div .edge-pattern-dotted{stroke-dasharray:2;}#graph-div .marker{fill:#333333;stroke:#333333;}#graph-div .marker.cross{stroke:#333333;}#graph-div svg{font-family:"trebuchet ms",verdana,arial,sans-serif;font-size:16px;}#graph-div .edge{stroke-width:3;}#graph-div .section--1 rect,#graph-div .section--1 path,#graph-div .section--1 circle,#graph-div .section--1 polygon,#graph-div .section--1 path{fill:hsl(240, 100%, 76.2745098039%);}#graph-div .section--1 text{fill:#ffffff;}#graph-div .node-icon--1{font-size:40px;color:#ffffff;}#graph-div .section-edge--1{stroke:hsl(240, 100%, 76.2745098039%);}#graph-div .edge-depth--1{stroke-width:17;}#graph-div .section--1 line{stroke:hsl(60, 100%, 86.2745098039%);stroke-width:3;}#graph-div .disabled,#graph-div .disabled circle,#graph-div .disabled text{fill:lightgray;}#graph-div .disabled text{fill:#efefef;}#graph-div .section-0 rect,#graph-div .section-0 path,#graph-div .section-0 circle,#graph-div .section-0 polygon,#graph-div .section-0 path{fill:hsl(60, 100%, 73.5294117647%);}#graph-div .section-0 text{fill:black;}#graph-div .node-icon-0{font-size:40px;color:black;}#graph-div .section-edge-0{stroke:hsl(60, 100%, 73.5294117647%);}#graph-div .edge-depth-0{stroke-width:14;}#graph-div .section-0 line{stroke:hsl(240, 100%, 83.5294117647%);stroke-width:3;}#graph-div .disabled,#graph-div .disabled circle,#graph-div .disabled text{fill:lightgray;}#graph-div .disabled text{fill:#efefef;}#graph-div .section-1 rect,#graph-div .section-1 path,#graph-div .section-1 circle,#graph-div .section-1 polygon,#graph-div .section-1 path{fill:hsl(80, 100%, 76.2745098039%);}#graph-div .section-1 text{fill:black;}#graph-div .node-icon-1{font-size:40px;color:black;}#graph-div .section-edge-1{stroke:hsl(80, 100%, 76.2745098039%);}#graph-div .edge-depth-1{stroke-width:11;}#graph-div .section-1 line{stroke:hsl(260, 100%, 86.2745098039%);stroke-width:3;}#graph-div .disabled,#graph-div .disabled circle,#graph-div .disabled text{fill:lightgray;}#graph-div .disabled text{fill:#efefef;}#graph-div .section-2 rect,#graph-div .section-2 path,#graph-div .section-2 circle,#graph-div .section-2 polygon,#graph-div .section-2 path{fill:hsl(270, 100%, 76.2745098039%);}#graph-div .section-2 text{fill:#ffffff;}#graph-div .node-icon-2{font-size:40px;color:#ffffff;}#graph-div .section-edge-2{stroke:hsl(270, 100%, 76.2745098039%);}#graph-div .edge-depth-2{stroke-width:8;}#graph-div .section-2 line{stroke:hsl(90, 100%, 86.2745098039%);stroke-width:3;}#graph-div .disabled,#graph-div .disabled circle,#graph-div .disabled text{fill:lightgray;}#graph-div .disabled text{fill:#efefef;}#graph-div .section-3 rect,#graph-div .section-3 path,#graph-div .section-3 circle,#graph-div .section-3 polygon,#graph-div .section-3 path{fill:hsl(300, 100%, 76.2745098039%);}#graph-div .section-3 text{fill:black;}#graph-div .node-icon-3{font-size:40px;color:black;}#graph-div .section-edge-3{stroke:hsl(300, 100%, 76.2745098039%);}#graph-div .edge-depth-3{stroke-width:5;}#graph-div .section-3 line{stroke:hsl(120, 100%, 86.2745098039%);stroke-width:3;}#graph-div .disabled,#graph-div .disabled circle,#graph-div .disabled text{fill:lightgray;}#graph-div .disabled text{fill:#efefef;}#graph-div .section-4 rect,#graph-div .section-4 path,#graph-div .section-4 circle,#graph-div .section-4 polygon,#graph-div .section-4 path{fill:hsl(330, 100%, 76.2745098039%);}#graph-div .section-4 text{fill:black;}#graph-div .node-icon-4{font-size:40px;color:black;}#graph-div .section-edge-4{stroke:hsl(330, 100%, 76.2745098039%);}#graph-div .edge-depth-4{stroke-width:2;}#graph-div .section-4 line{stroke:hsl(150, 100%, 86.2745098039%);stroke-width:3;}#graph-div .disabled,#graph-div .disabled circle,#graph-div .disabled text{fill:lightgray;}#graph-div .disabled text{fill:#efefef;}#graph-div .section-5 rect,#graph-div .section-5 path,#graph-div .section-5 circle,#graph-div .section-5 polygon,#graph-div .section-5 path{fill:hsl(0, 100%, 76.2745098039%);}#graph-div .section-5 text{fill:black;}#graph-div .node-icon-5{font-size:40px;color:black;}#graph-div .section-edge-5{stroke:hsl(0, 100%, 76.2745098039%);}#graph-div .edge-depth-5{stroke-width:-1;}#graph-div .section-5 line{stroke:hsl(180, 100%, 86.2745098039%);stroke-width:3;}#graph-div .disabled,#graph-div .disabled circle,#graph-div .disabled text{fill:lightgray;}#graph-div .disabled text{fill:#efefef;}#graph-div .section-6 rect,#graph-div .section-6 path,#graph-div .section-6 circle,#graph-div .section-6 polygon,#graph-div .section-6 path{fill:hsl(30, 100%, 76.2745098039%);}#graph-div .section-6 text{fill:black;}#graph-div .node-icon-6{font-size:40px;color:black;}#graph-div .section-edge-6{stroke:hsl(30, 100%, 76.2745098039%);}#graph-div .edge-depth-6{stroke-width:-4;}#graph-div .section-6 line{stroke:hsl(210, 100%, 86.2745098039%);stroke-width:3;}#graph-div .disabled,#graph-div .disabled circle,#graph-div .disabled text{fill:lightgray;}#graph-div .disabled text{fill:#efefef;}#graph-div .section-7 rect,#graph-div .section-7 path,#graph-div .section-7 circle,#graph-div .section-7 polygon,#graph-div .section-7 path{fill:hsl(90, 100%, 76.2745098039%);}#graph-div .section-7 text{fill:black;}#graph-div .node-icon-7{font-size:40px;color:black;}#graph-div .section-edge-7{stroke:hsl(90, 100%, 76.2745098039%);}#graph-div .edge-depth-7{stroke-width:-7;}#graph-div .section-7 line{stroke:hsl(270, 100%, 86.2745098039%);stroke-width:3;}#graph-div .disabled,#graph-div .disabled circle,#graph-div .disabled text{fill:lightgray;}#graph-div .disabled text{fill:#efefef;}#graph-div .section-8 rect,#graph-div .section-8 path,#graph-div .section-8 circle,#graph-div .section-8 polygon,#graph-div .section-8 path{fill:hsl(150, 100%, 76.2745098039%);}#graph-div .section-8 text{fill:black;}#graph-div .node-icon-8{font-size:40px;color:black;}#graph-div .section-edge-8{stroke:hsl(150, 100%, 76.2745098039%);}#graph-div .edge-depth-8{stroke-width:-10;}#graph-div .section-8 line{stroke:hsl(330, 100%, 86.2745098039%);stroke-width:3;}#graph-div .disabled,#graph-div .disabled circle,#graph-div .disabled text{fill:lightgray;}#graph-div .disabled text{fill:#efefef;}#graph-div .section-9 rect,#graph-div .section-9 path,#graph-div .section-9 circle,#graph-div .section-9 polygon,#graph-div .section-9 path{fill:hsl(180, 100%, 76.2745098039%);}#graph-div .section-9 text{fill:black;}#graph-div .node-icon-9{font-size:40px;color:black;}#graph-div .section-edge-9{stroke:hsl(180, 100%, 76.2745098039%);}#graph-div .edge-depth-9{stroke-width:-13;}#graph-div .section-9 line{stroke:hsl(0, 100%, 86.2745098039%);stroke-width:3;}#graph-div .disabled,#graph-div .disabled circle,#graph-div .disabled text{fill:lightgray;}#graph-div .disabled text{fill:#efefef;}#graph-div .section-10 rect,#graph-div .section-10 path,#graph-div .section-10 circle,#graph-div .section-10 polygon,#graph-div .section-10 path{fill:hsl(210, 100%, 76.2745098039%);}#graph-div .section-10 text{fill:black;}#graph-div .node-icon-10{font-size:40px;color:black;}#graph-div .section-edge-10{stroke:hsl(210, 100%, 76.2745098039%);}#graph-div .edge-depth-10{stroke-width:-16;}#graph-div .section-10 line{stroke:hsl(30, 100%, 86.2745098039%);stroke-width:3;}#graph-div .disabled,#graph-div .disabled circle,#graph-div .disabled text{fill:lightgray;}#graph-div .disabled text{fill:#efefef;}#graph-div .section-root rect,#graph-div .section-root path,#graph-div .section-root circle,#graph-div .section-root polygon{fill:hsl(240, 100%, 46.2745098039%);}#graph-div .section-root text{fill:#ffffff;}#graph-div .icon-container{height:100%;display:flex;justify-content:center;align-items:center;}#graph-div .edge{fill:none;}#graph-div :root{--mermaid-font-family:"trebuchet ms",verdana,arial,sans-serif;}</style><g></g><g></g><g class="mindmap-edges"><path class="edge section-edge-0 edge-depth-2" d="M 598.8793650940162,472.6324915982427 L 632.1692826184105,499.80008619651596 L665.4592001428049,526.9676807947892"></path><path class="edge section-edge-0 edge-depth-2" d="M 580.966153054623,476.76507175680456 L 566.9338755096222,507.13270261716 L552.9015979646215,537.5003334775155"></path><path class="edge section-edge-0 edge-depth-2" d="M 599.5995975186468,454.62278829273595 L 630.3604966571966,433.3726676607897 L661.1213957957464,412.1225470288435"></path><path class="edge section-edge-0 edge-depth-2" d="M 602.244900799948,463.77773665921586 L 666.6865289911649,466.48343690803097 L731.1281571823818,469.1891371568461"></path><path class="edge section-edge-0 edge-depth-1" d="M 452.95232944606914,402.34912317105403 L 513.2727102571541,429.6557736268612 L573.593091068239,456.9624240826684"></path><path class="edge section-edge-0 edge-depth-2" d="M 337.55242834541446,475.1991943659429 L 396.0049007425281,477.218223841845 L454.4573731396416,479.23725331774705"></path><path class="edge section-edge-0 edge-depth-2" d="M 307.8109391007247,471.95652860183856 L 228.43614639468473,457.293585922274 L149.06135368864477,442.6306432427095"></path><path class="edge section-edge-0 edge-depth-2" d="M 334.35341927345314,483.9521720956873 L 368.1610870273396,510.5314150888638 L401.96875478122604,537.1106580820403"></path><path class="edge section-edge-0 edge-depth-2" d="M 317.0638955927137,488.63766375029655 L 304.81386838280116,519.7364658397279 L292.5638411728886,550.8352679291593"></path><path class="edge section-edge-0 edge-depth-2" d="M 308.00174336866814,478.2893335357761 L 231.8207818780662,497.1673735587997 L155.6398203874643,516.0454135818233"></path><path class="edge section-edge-0 edge-depth-1" d="M 426.84116755908417,404.53523903694906 L 380.92434205610743,435.42222057013623 L335.0075165531307,466.3092021033234"></path><path class="edge section-edge-0 edge-depth-0" d="M 427.4824562335413,288.6288257624995 L 432.56646985912465,334.9407296422369 L437.650483484708,381.25263352197425"></path><path class="edge section-edge-1 edge-depth-2" d="M 663.3271325158511,128.56939524119576 L 707.4659585008117,137.09821573975606 L751.6047844857723,145.62703623831635"></path><path class="edge section-edge-1 edge-depth-2" d="M 636.6339022416479,116.6780087262161 L 601.2541033933012,89.93210471135896 L565.8743045449545,63.18620069650181"></path><path class="edge section-edge-1 edge-depth-2" d="M 662.9565764451352,121.37898919894737 L 726.980739175053,102.00437601531243 L791.0049019049709,82.6297628316775"></path><path class="edge section-edge-1 edge-depth-2" d="M 652.5936370626629,111.26515886896158 L 661.4195203448688,79.31571959444787 L670.2454036270748,47.36628031993416"></path><path class="edge section-edge-1 edge-depth-2" d="M 655.5309400206186,139.02610287122855 L 670.2613825889268,167.2962539975401 L684.9918251572351,195.56640512385167"></path><path class="edge section-edge-1 edge-depth-1" d="M 558.1599030971972,200.80520680200016 L 597.6091415327063,168.05506720657945 L637.0583799682154,135.3049276111587"></path><path class="edge section-edge-1 edge-depth-0" d="M 439.12994065592943,266.7522726202398 L 486.23217721172693,242.05245411926106 L533.3344137675244,217.3526356182823"></path><path class="edge section-edge-2 edge-depth-1" d="M 225.9481745697227,240.82127082837042 L 166.14511052975905,263.9608938792453 L106.3420464897954,287.10051693012014"></path><path class="edge section-edge-2 edge-depth-1" d="M 224.9855659726647,234.20826583444747 L 148.50194286241862,228.06929546291533 L72.01831975217254,221.9303250913832"></path><path class="edge section-edge-2 edge-depth-1" d="M 227.56766719326095,226.92382442971885 L 190.82043966146762,201.71858939325577 L154.0732121296743,176.5133543567927"></path><path class="edge section-edge-2 edge-depth-0" d="M 411.15431217663235,270.6909677186148 L 332.89155186634576,254.56339205137087 L254.62879155605918,238.43581638412692"></path><path class="edge section-edge-3 edge-depth-1" d="M 362.6142900501243,172.6664364318169 L 312.2529699400737,149.81019107670087 L261.8916498300231,126.95394572158486"></path><path class="edge section-edge-3 edge-depth-1" d="M 390.89307425962045,175.50924979540537 L 457.28888725871894,160.2664824755079 L523.6847002578174,145.02371515561043"></path><path class="edge section-edge-3 edge-depth-1" d="M 371.65824554590256,164.59318591896204 L 361.1125740028632,131.9806068900913 L350.56690245982384,99.3680278612206"></path><path class="edge section-edge-3 edge-depth-1" d="M 385.7019671073614,167.1992813093467 L 407.2268849361541,140.56583704055933 L428.7518027649468,113.93239277177194"></path><path class="edge section-edge-3 edge-depth-0" d="M 418.89790463075406,260.42444730299763 L 401.0595060822577,226.29197673775704 L383.22110753376126,192.15950617251644"></path><path class="edge section-edge-4 edge-depth-1" d="M 288.939939480789,308.3695466789604 L 345.88853711316256,321.1670615817138 L402.8371347455361,333.9645764844673"></path><path class="edge section-edge-4 edge-depth-1" d="M 275.70600916026314,320.0151792373595 L 278.34796015750385,348.1760847145248 L280.98991115474456,376.33699019169006"></path><path class="edge section-edge-4 edge-depth-1" d="M 260.7148767678889,311.4298359384561 L 219.44531155278838,330.71040302356494 L178.17574633768785,349.99097010867376"></path><path class="edge section-edge-4 edge-depth-0" d="M 411.15689314023336,276.75833113093984 L 350.07527088479424,289.39957918184155 L288.9936486293551,302.04082723274325"></path><path class="edge section-edge-5 edge-depth-1" d="M 597.7359613723538,294.31768771891177 L 586.696093605585,320.7299521415258 L575.6562258388162,347.14221656413986"></path><path class="edge section-edge-5 edge-depth-1" d="M 617.5092575990478,285.8928445375291 L 676.2469468486588,308.62964978487526 L734.9846360982698,331.36645503222144"></path><path class="edge section-edge-5 edge-depth-1" d="M 618.4802875624111,279.3775787423982 L 707.4353845560689,272.8340236408808 L796.3904815497267,266.29046853936336"></path><path class="edge section-edge-5 edge-depth-0" d="M 440.8347804927527,274.28865954821316 L 514.6831655682705,277.09820453342013 L588.5315506437883,279.9077495186271"></path></g><g class="mindmap-nodes"><g transform="translate(399.3924992578543, 255.81058801425897)" class="mindmap-node section--1 section-root"><g transform="translate(26.453125, 17.9078125)"><circle r="26.453125" class="node-bkg node-circle" id="node-0"></circle></g><g transform="translate(26.453125, 5)"><text text-anchor="middle" dominant-baseline="middle" alignment-baseline="middle" dy="1em"><tspan dy="1em" x="0">CSS</tspan></text></g></g><g transform="translate(391.490440460395, 378.2552462702148)" class="mindmap-node section-0"><g><path d="M0 30.815624999999997 v-25.815624999999997 q0,-5 5,-5 h85.59375 q5,0 5,5 v30.815624999999997 H0 Z" class="node-bkg node-no-border" id="node-1"></path><line y2="35.815625" x2="95.59375" y1="35.815625" x1="0" class="node-line-0"></line></g><g transform="translate(47.796875, 5)"><text text-anchor="middle" dominant-baseline="middle" alignment-baseline="middle" dy="1em"><tspan dy="1em" x="0">Selectores</tspan></text></g></g><g transform="translate(549.2424800539131, 445.2406759835077)" class="mindmap-node section-0"><g><path d="M0 30.815624999999997 v-25.815624999999997 q0,-5 5,-5 h66.03125 q5,0 5,5 v30.815624999999997 H0 Z" class="node-bkg node-no-border" id="node-2"></path><line y2="35.815625" x2="76.03125" y1="35.815625" x1="0" class="node-line-0"></line></g><g transform="translate(38.015625, 5)"><text text-anchor="middle" dominant-baseline="middle" alignment-baseline="middle" dy="1em"><tspan dy="1em" x="0">Básicos</tspan></text></g></g><g transform="translate(613.5140539329079, 518.5438714095243)" class="mindmap-node section-0"><g><path d="M0 30.815624999999997 v-25.815624999999997 q0,-5 5,-5 h117.1328125 q5,0 5,5 v30.815624999999997 H0 Z" class="node-bkg node-no-border" id="node-3"></path><line y2="35.815625" x2="127.1328125" y1="35.815625" x1="0" class="node-line-0"></line></g><g transform="translate(63.56640625, 5)"><text text-anchor="middle" dominant-baseline="middle" alignment-baseline="middle" dy="1em"><tspan dy="1em" x="0">Tipo   o   Etiqueta</tspan></text></g></g><g transform="translate(516.1057397153313, 533.2091042508124)" class="mindmap-node section-0"><g><path d="M0 30.815624999999997 v-25.815624999999997 q0,-5 5,-5 h51.0078125 q5,0 5,5 v30.815624999999997 H0 Z" class="node-bkg node-no-border" id="node-4"></path><line y2="35.815625" x2="61.0078125" y1="35.815625" x1="0" class="node-line-0"></line></g><g transform="translate(30.50390625, 5)"><text text-anchor="middle" dominant-baseline="middle" alignment-baseline="middle" dy="1em"><tspan dy="1em" x="0">Clase</tspan></text></g></g><g transform="translate(655.46288826048, 385.6890343380718)" class="mindmap-node section-0"><g><path d="M0 30.815624999999997 v-25.815624999999997 q0,-5 5,-5 h26 q5,0 5,5 v30.815624999999997 H0 Z" class="node-bkg node-no-border" id="node-5"></path><line y2="35.815625" x2="36" y1="35.815625" x1="0" class="node-line-0"></line></g><g transform="translate(18, 5)"><text text-anchor="middle" dominant-baseline="middle" alignment-baseline="middle" dy="1em"><tspan dy="1em" x="0">ID</tspan></text></g></g><g transform="translate(685.3649529284166, 451.9105728325543)" class="mindmap-node section-0"><g><path d="M0 30.815624999999997 v-25.815624999999997 q0,-5 5,-5 h111.5 q5,0 5,5 v30.815624999999997 H0 Z" class="node-bkg node-no-border" id="node-6"></path><line y2="35.815625" x2="121.5" y1="35.815625" x1="0" class="node-line-0"></line></g><g transform="translate(60.75, 5)"><text text-anchor="middle" dominant-baseline="middle" alignment-baseline="middle" dy="1em"><tspan dy="1em" x="0">Descendencia</tspan></text></g></g><g transform="translate(273.12386865181986, 456.7735698700577)" class="mindmap-node section-0"><g><path d="M0 30.815624999999997 v-25.815624999999997 q0,-5 5,-5 h88.875 q5,0 5,5 v30.815624999999997 H0 Z" class="node-bkg node-no-border" id="node-7"></path><line y2="35.815625" x2="98.875" y1="35.815625" x1="0" class="node-line-0"></line></g><g transform="translate(49.4375, 5)"><text text-anchor="middle" dominant-baseline="middle" alignment-baseline="middle" dy="1em"><tspan dy="1em" x="0">Avanzados</tspan></text></g></g><g transform="translate(418.0539015832362, 461.8472528136323)" class="mindmap-node section-0"><g><path d="M0 30.815624999999997 v-25.815624999999997 q0,-5 5,-5 h92.7890625 q5,0 5,5 v30.815624999999997 H0 Z" class="node-bkg node-no-border" id="node-8"></path><line y2="35.815625" x2="102.7890625" y1="35.815625" x1="0" class="node-line-0"></line></g><g transform="translate(51.39453125, 5)"><text text-anchor="middle" dominant-baseline="middle" alignment-baseline="middle" dy="1em"><tspan dy="1em" x="0">Hijo   Directo</tspan></text></g></g><g transform="translate(51.77186163754959, 421.99797697449037)" class="mindmap-node section-0"><g><path d="M0 30.815624999999997 v-25.815624999999997 q0,-5 5,-5 h155.078125 q5,0 5,5 v30.815624999999997 H0 Z" class="node-bkg node-no-border" id="node-9"></path><line y2="35.815625" x2="165.078125" y1="35.815625" x1="0" class="node-line-0"></line></g><g transform="translate(82.5390625, 5)"><text text-anchor="middle" dominant-baseline="middle" alignment-baseline="middle" dy="1em"><tspan dy="1em" x="0">Hermano   Adyacente</tspan></text></g></g><g transform="translate(376.1397116528593, 528.47363530767)" class="mindmap-node section-0"><g><path d="M0 30.815624999999997 v-25.815624999999997 q0,-5 5,-5 h65.2421875 q5,0 5,5 v30.815624999999997 H0 Z" class="node-bkg node-no-border" id="node-10"></path><line y2="35.815625" x2="75.2421875" y1="35.815625" x1="0" class="node-line-0"></line></g><g transform="translate(37.62109375, 5)"><text text-anchor="middle" dominant-baseline="middle" alignment-baseline="middle" dy="1em"><tspan dy="1em" x="0">Atributo</tspan></text></g></g><g transform="translate(227.20699311378246, 546.8837368093981)" class="mindmap-node section-0"><g><path d="M0 30.815624999999997 v-25.815624999999997 q0,-5 5,-5 h109.71875 q5,0 5,5 v30.815624999999997 H0 Z" class="node-bkg node-no-border" id="node-11"></path><line y2="35.815625" x2="119.71875" y1="35.815625" x1="0" class="node-line-0"></line></g><g transform="translate(59.859375, 5)"><text text-anchor="middle" dominant-baseline="middle" alignment-baseline="middle" dy="1em"><tspan dy="1em" x="0">Pseudo   Clase</tspan></text></g></g><g transform="translate(67.87707010431257, 501.7455522475417)" class="mindmap-node section-0"><g><path d="M0 30.815624999999997 v-25.815624999999997 q0,-5 5,-5 h136.40625 q5,0 5,5 v30.815624999999997 H0 Z" class="node-bkg node-no-border" id="node-12"></path><line y2="35.815625" x2="146.40625" y1="35.815625" x1="0" class="node-line-0"></line></g><g transform="translate(73.203125, 5)"><text text-anchor="middle" dominant-baseline="middle" alignment-baseline="middle" dy="1em"><tspan dy="1em" x="0">Pseudo   Elemento</tspan></text></g></g><g transform="translate(491.6968551655996, 192.4786952242631)" class="mindmap-node section-1"><g><path d="M0 30.815624999999997 v-25.815624999999997 q0,-5 5,-5 h99.84375 q5,0 5,5 v30.815624999999997 H0 Z" class="node-bkg node-no-border" id="node-13"></path><line y2="35.815625" x2="109.84375" y1="35.815625" x1="0" class="node-line-1"></line></g><g transform="translate(54.921875, 5)"><text text-anchor="middle" dominant-baseline="middle" alignment-baseline="middle" dy="1em"><tspan dy="1em" x="0">Propiedades</tspan></text></g></g><g transform="translate(612.068302899813, 107.81581418889573)" class="mindmap-node section-1"><g><path d="M0 30.815624999999997 v-25.815624999999997 q0,-5 5,-5 h63.0625 q5,0 5,5 v30.815624999999997 H0 Z" class="node-bkg node-no-border" id="node-14"></path><line y2="35.815625" x2="73.0625" y1="35.815625" x1="0" class="node-line-1"></line></g><g transform="translate(36.53125, 5)"><text text-anchor="middle" dominant-baseline="middle" alignment-baseline="middle" dy="1em"><tspan dy="1em" x="0">Valores</tspan></text></g></g><g transform="translate(739.4417391018103, 130.56499229061637)" class="mindmap-node section-1"><g><path d="M0 30.815624999999997 v-25.815624999999997 q0,-5 5,-5 h43.78125 q5,0 5,5 v30.815624999999997 H0 Z" class="node-bkg node-no-border" id="node-15"></path><line y2="35.815625" x2="53.78125" y1="35.815625" x1="0" class="node-line-1"></line></g><g transform="translate(26.890625, 5)"><text text-anchor="middle" dominant-baseline="middle" alignment-baseline="middle" dy="1em"><tspan dy="1em" x="0">Fijos</tspan></text></g></g><g transform="translate(511.00240388678935, 36.23277023382218)" class="mindmap-node section-1"><g><path d="M0 30.815624999999997 v-25.815624999999997 q0,-5 5,-5 h75.8125 q5,0 5,5 v30.815624999999997 H0 Z" class="node-bkg node-no-border" id="node-16"></path><line y2="35.815625" x2="85.8125" y1="35.815625" x1="0" class="node-line-1"></line></g><g transform="translate(42.90625, 5)"><text text-anchor="middle" dominant-baseline="middle" alignment-baseline="middle" dy="1em"><tspan dy="1em" x="0">Relativos</tspan></text></g></g><g transform="translate(742.838487950293, 60.37731284172913)" class="mindmap-node section-1"><g><path d="M0 30.815624999999997 v-25.815624999999997 q0,-5 5,-5 h115.046875 q5,0 5,5 v30.815624999999997 H0 Z" class="node-bkg node-no-border" id="node-17"></path><line y2="35.815625" x2="125.046875" y1="35.815625" x1="0" class="node-line-1"></line></g><g transform="translate(62.5234375, 5)"><text text-anchor="middle" dominant-baseline="middle" alignment-baseline="middle" dy="1em"><tspan dy="1em" x="0">Palabras   clave</tspan></text></g></g><g transform="translate(626.0051127899246, 15)" class="mindmap-node section-1"><g><path d="M0 30.815624999999997 v-25.815624999999997 q0,-5 5,-5 h86.46875 q5,0 5,5 v30.815624999999997 H0 Z" class="node-bkg node-no-border" id="node-18"></path><line y2="35.815625" x2="96.46875" y1="35.815625" x1="0" class="node-line-1"></line></g><g transform="translate(48.234375, 5)"><text text-anchor="middle" dominant-baseline="middle" alignment-baseline="middle" dy="1em"><tspan dy="1em" x="0">Numéricos</tspan></text></g></g><g transform="translate(643.6732122780406, 190.96106880618447)" class="mindmap-node section-1"><g><path d="M0 30.815624999999997 v-25.815624999999997 q0,-5 5,-5 h86.5 q5,0 5,5 v30.815624999999997 H0 Z" class="node-bkg node-no-border" id="node-19"></path><line y2="35.815625" x2="96.5" y1="35.815625" x1="0" class="node-line-1"></line></g><g transform="translate(48.25, 5)"><text text-anchor="middle" dominant-baseline="middle" alignment-baseline="middle" dy="1em"><tspan dy="1em" x="0">De   función</tspan></text></g></g><g transform="translate(161.40622947483723, 217.50057108848273)" class="mindmap-node section-2"><g><path d="M0 30.815624999999997 v-25.815624999999997 q0,-5 5,-5 h147.0625 q5,0 5,5 v30.815624999999997 H0 Z" class="node-bkg node-no-border" id="node-20"></path><line y2="35.815625" x2="157.0625" y1="35.815625" x1="0" class="node-line-2"></line></g><g transform="translate(78.53125, 5)"><text text-anchor="middle" dominant-baseline="middle" alignment-baseline="middle" dy="1em"><tspan dy="1em" x="0">Estilos   en   Cascada</tspan></text></g></g><g transform="translate(35.21211658468087, 274.6055916700078)" class="mindmap-node section-2"><g><path d="M0 30.815624999999997 v-25.815624999999997 q0,-5 5,-5 h104.28125 q5,0 5,5 v30.815624999999997 H0 Z" class="node-bkg node-no-border" id="node-21"></path><line y2="35.815625" x2="114.28125" y1="35.815625" x1="0" class="node-line-2"></line></g><g transform="translate(57.140625, 5)"><text text-anchor="middle" dominant-baseline="middle" alignment-baseline="middle" dy="1em"><tspan dy="1em" x="0">Especificidad</tspan></text></g></g><g transform="translate(15, 202.82239483734793)" class="mindmap-node section-2"><g><path d="M0 30.815624999999997 v-25.815624999999997 q0,-5 5,-5 h74.1328125 q5,0 5,5 v30.815624999999997 H0 Z" class="node-bkg node-no-border" id="node-22"></path><line y2="35.815625" x2="84.1328125" y1="35.815625" x1="0" class="node-line-2"></line></g><g transform="translate(42.06640625, 5)"><text text-anchor="middle" dominant-baseline="middle" alignment-baseline="middle" dy="1em"><tspan dy="1em" x="0">Herencia</tspan></text></g></g><g transform="translate(62.508087348098, 150.1209826980288)" class="mindmap-node section-2"><g><path d="M0 30.815624999999997 v-25.815624999999997 q0,-5 5,-5 h148.390625 q5,0 5,5 v30.815624999999997 H0 Z" class="node-bkg node-no-border" id="node-23"></path><line y2="35.815625" x2="158.390625" y1="35.815625" x1="0" class="node-line-2"></line></g><g transform="translate(79.1953125, 5)"><text text-anchor="middle" dominant-baseline="middle" alignment-baseline="middle" dy="1em"><tspan dy="1em" x="0">Keyword   !important</tspan></text></g></g><g transform="translate(306.234325406661, 160.95774046125507)" class="mindmap-node section-3"><g><path d="M0 30.815624999999997 v-25.815624999999997 q0,-5 5,-5 h130.078125 q5,0 5,5 v30.815624999999997 H0 Z" class="node-bkg node-no-border" id="node-24"></path><line y2="35.815625" x2="140.078125" y1="35.815625" x1="0" class="node-line-3"></line></g><g transform="translate(70.0390625, 5)"><text text-anchor="middle" dominant-baseline="middle" alignment-baseline="middle" dy="1em"><tspan dy="1em" x="0">Modelo   de   Cajas</tspan></text></g></g><g transform="translate(209.93567697348635, 102.84701669214667)" class="mindmap-node section-3"><g><path d="M0 30.815624999999997 v-25.815624999999997 q0,-5 5,-5 h66.59375 q5,0 5,5 v30.815624999999997 H0 Z" class="node-bkg node-no-border" id="node-25"></path><line y2="35.815625" x2="76.59375" y1="35.815625" x1="0" class="node-line-3"></line></g><g transform="translate(38.296875, 5)"><text text-anchor="middle" dominant-baseline="middle" alignment-baseline="middle" dy="1em"><tspan dy="1em" x="0">Content</tspan></text></g></g><g transform="translate(498.9450116107769, 123.75959948976072)" class="mindmap-node section-3"><g><path d="M0 30.815624999999997 v-25.815624999999997 q0,-5 5,-5 h68.71875 q5,0 5,5 v30.815624999999997 H0 Z" class="node-bkg node-no-border" id="node-26"></path><line y2="35.815625" x2="78.71875" y1="35.815625" x1="0" class="node-line-3"></line></g><g transform="translate(39.359375, 5)"><text text-anchor="middle" dominant-baseline="middle" alignment-baseline="middle" dy="1em"><tspan dy="1em" x="0">Padding</tspan></text></g></g><g transform="translate(311.6041038490654, 67.18784831892754)" class="mindmap-node section-3"><g><path d="M0 30.815624999999997 v-25.815624999999997 q0,-5 5,-5 h58.6953125 q5,0 5,5 v30.815624999999997 H0 Z" class="node-bkg node-no-border" id="node-27"></path><line y2="35.815625" x2="68.6953125" y1="35.815625" x1="0" class="node-line-3"></line></g><g transform="translate(34.34765625, 5)"><text text-anchor="middle" dominant-baseline="middle" alignment-baseline="middle" dy="1em"><tspan dy="1em" x="0">Border</tspan></text></g></g><g transform="translate(403.72725696564714, 84.35830861986358)" class="mindmap-node section-3"><g><path d="M0 30.815624999999997 v-25.815624999999997 q0,-5 5,-5 h58.90625 q5,0 5,5 v30.815624999999997 H0 Z" class="node-bkg node-no-border" id="node-28"></path><line y2="35.815625" x2="68.90625" y1="35.815625" x1="0" class="node-line-3"></line></g><g transform="translate(34.453125, 5)"><text text-anchor="middle" dominant-baseline="middle" alignment-baseline="middle" dy="1em"><tspan dy="1em" x="0">Margin</tspan></text></g></g><g transform="translate(209.15648001173417, 287.17294534942414)" class="mindmap-node section-4"><g><path d="M0 30.815624999999997 v-25.815624999999997 q0,-5 5,-5 h120.296875 q5,0 5,5 v30.815624999999997 H0 Z" class="node-bkg node-no-border" id="node-29"></path><line y2="35.815625" x2="130.296875" y1="35.815625" x1="0" class="node-line-4"></line></g><g transform="translate(65.1484375, 5)"><text text-anchor="middle" dominant-baseline="middle" alignment-baseline="middle" dy="1em"><tspan dy="1em" x="0">Diseño   Layouts</tspan></text></g></g><g transform="translate(385.68309421459094, 319.34555281400355)" class="mindmap-node section-4"><g><path d="M0 30.815624999999997 v-25.815624999999997 q0,-5 5,-5 h53.578125 q5,0 5,5 v30.815624999999997 H0 Z" class="node-bkg node-no-border" id="node-30"></path><line y2="35.815625" x2="63.578125" y1="35.815625" x1="0" class="node-line-4"></line></g><g transform="translate(31.7890625, 5)"><text text-anchor="middle" dominant-baseline="middle" alignment-baseline="middle" dy="1em"><tspan dy="1em" x="0">Floats</tspan></text></g></g><g transform="translate(244.37537780327352, 373.3635990796255)" class="mindmap-node section-4"><g><path d="M0 30.815624999999997 v-25.815624999999997 q0,-5 5,-5 h66.03125 q5,0 5,5 v30.815624999999997 H0 Z" class="node-bkg node-no-border" id="node-31"></path><line y2="35.815625" x2="76.03125" y1="35.815625" x1="0" class="node-line-4"></line></g><g transform="translate(38.015625, 5)"><text text-anchor="middle" dominant-baseline="middle" alignment-baseline="middle" dy="1em"><tspan dy="1em" x="0">Flexbox</tspan></text></g></g><g transform="translate(139.4685180938426, 338.4322356977058)" class="mindmap-node section-4"><g><path d="M0 30.815624999999997 v-25.815624999999997 q0,-5 5,-5 h40.234375 q5,0 5,5 v30.815624999999997 H0 Z" class="node-bkg node-no-border" id="node-32"></path><line y2="35.815625" x2="50.234375" y1="35.815625" x1="0" class="node-line-4"></line></g><g transform="translate(25.1171875, 5)"><text text-anchor="middle" dominant-baseline="middle" alignment-baseline="middle" dy="1em"><tspan dy="1em" x="0">Grid</tspan></text></g></g><g transform="translate(514.7668006286867, 262.5701960525813)" class="mindmap-node section-5"><g><path d="M0 30.815624999999997 v-25.815624999999997 q0,-5 5,-5 h167.5078125 q5,0 5,5 v30.815624999999997 H0 Z" class="node-bkg node-no-border" id="node-33"></path><line y2="35.815625" x2="177.5078125" y1="35.815625" x1="0" class="node-line-5"></line></g><g transform="translate(88.75390625, 5)"><text text-anchor="middle" dominant-baseline="middle" alignment-baseline="middle" dy="1em"><tspan dy="1em" x="0">Integración   con   HTML</tspan></text></g></g><g transform="translate(530.4652303324833, 343.07408323047036)" class="mindmap-node section-5"><g><path d="M0 30.815624999999997 v-25.815624999999997 q0,-5 5,-5 h68.8125 q5,0 5,5 v30.815624999999997 H0 Z" class="node-bkg node-no-border" id="node-34"></path><line y2="35.815625" x2="78.8125" y1="35.815625" x1="0" class="node-line-5"></line></g><g transform="translate(39.40625, 5)"><text text-anchor="middle" dominant-baseline="middle" alignment-baseline="middle" dy="1em"><tspan dy="1em" x="0">En   línea</tspan></text></g></g><g transform="translate(693.5630305686309, 318.87347851716925)" class="mindmap-node section-5"><g><path d="M0 30.815624999999997 v-25.815624999999997 q0,-5 5,-5 h100.8203125 q5,0 5,5 v30.815624999999997 H0 Z" class="node-bkg node-no-border" id="node-35"></path><line y2="35.815625" x2="110.8203125" y1="35.815625" x1="0" class="node-line-5"></line></g><g transform="translate(55.41015625, 5)"><text text-anchor="middle" dominant-baseline="middle" alignment-baseline="middle" dy="1em"><tspan dy="1em" x="0">Hoja   externa</tspan></text></g></g><g transform="translate(753.2719372334511, 247.28222622918028)" class="mindmap-node section-5"><g><path d="M0 30.815624999999997 v-25.815624999999997 q0,-5 5,-5 h106.15625 q5,0 5,5 v30.815624999999997 H0 Z" class="node-bkg node-no-border" id="node-36"></path><line y2="35.815625" x2="116.15625" y1="35.815625" x1="0" class="node-line-5"></line></g><g transform="translate(58.078125, 5)"><text text-anchor="middle" dominant-baseline="middle" alignment-baseline="middle" dy="1em"><tspan dy="1em" x="0">Etiqueta   style</tspan></text></g></g></g></svg>