<svg aria-roledescription="mindmap" role="graphics-document document" viewBox="5 5 980.0847778320312 600.9874877929688" style="max-width: 100%;" xmlns="http://www.w3.org/2000/svg" width="100%" id="graph-div" height="100%" xmlns:xlink="http://www.w3.org/1999/xlink"><style>@import url("https://cdnjs.cloudflare.com/ajax/libs/font-awesome/6.2.1/css/all.min.css");'</style><style>#graph-div{font-family:"trebuchet ms",verdana,arial,sans-serif;font-size:16px;fill:#333;}#graph-div .error-icon{fill:#552222;}#graph-div .error-text{fill:#552222;stroke:#552222;}#graph-div .edge-thickness-normal{stroke-width:2px;}#graph-div .edge-thickness-thick{stroke-width:3.5px;}#graph-div .edge-pattern-solid{stroke-dasharray:0;}#graph-div .edge-pattern-dashed{stroke-dasharray:3;}#graph-div .edge-pattern-dotted{stroke-dasharray:2;}#graph-div .marker{fill:#333333;stroke:#333333;}#graph-div .marker.cross{stroke:#333333;}#graph-div svg{font-family:"trebuchet ms",verdana,arial,sans-serif;font-size:16px;}#graph-div .edge{stroke-width:3;}#graph-div .section--1 rect,#graph-div .section--1 path,#graph-div .section--1 circle,#graph-div .section--1 polygon,#graph-div .section--1 path{fill:hsl(240, 100%, 76.2745098039%);}#graph-div .section--1 text{fill:#ffffff;}#graph-div .node-icon--1{font-size:40px;color:#ffffff;}#graph-div .section-edge--1{stroke:hsl(240, 100%, 76.2745098039%);}#graph-div .edge-depth--1{stroke-width:17;}#graph-div .section--1 line{stroke:hsl(60, 100%, 86.2745098039%);stroke-width:3;}#graph-div .disabled,#graph-div .disabled circle,#graph-div .disabled text{fill:lightgray;}#graph-div .disabled text{fill:#efefef;}#graph-div .section-0 rect,#graph-div .section-0 path,#graph-div .section-0 circle,#graph-div .section-0 polygon,#graph-div .section-0 path{fill:hsl(60, 100%, 73.5294117647%);}#graph-div .section-0 text{fill:black;}#graph-div .node-icon-0{font-size:40px;color:black;}#graph-div .section-edge-0{stroke:hsl(60, 100%, 73.5294117647%);}#graph-div .edge-depth-0{stroke-width:14;}#graph-div .section-0 line{stroke:hsl(240, 100%, 83.5294117647%);stroke-width:3;}#graph-div .disabled,#graph-div .disabled circle,#graph-div .disabled text{fill:lightgray;}#graph-div .disabled text{fill:#efefef;}#graph-div .section-1 rect,#graph-div .section-1 path,#graph-div .section-1 circle,#graph-div .section-1 polygon,#graph-div .section-1 path{fill:hsl(80, 100%, 76.2745098039%);}#graph-div .section-1 text{fill:black;}#graph-div .node-icon-1{font-size:40px;color:black;}#graph-div .section-edge-1{stroke:hsl(80, 100%, 76.2745098039%);}#graph-div .edge-depth-1{stroke-width:11;}#graph-div .section-1 line{stroke:hsl(260, 100%, 86.2745098039%);stroke-width:3;}#graph-div .disabled,#graph-div .disabled circle,#graph-div .disabled text{fill:lightgray;}#graph-div .disabled text{fill:#efefef;}#graph-div .section-2 rect,#graph-div .section-2 path,#graph-div .section-2 circle,#graph-div .section-2 polygon,#graph-div .section-2 path{fill:hsl(270, 100%, 76.2745098039%);}#graph-div .section-2 text{fill:#ffffff;}#graph-div .node-icon-2{font-size:40px;color:#ffffff;}#graph-div .section-edge-2{stroke:hsl(270, 100%, 76.2745098039%);}#graph-div .edge-depth-2{stroke-width:8;}#graph-div .section-2 line{stroke:hsl(90, 100%, 86.2745098039%);stroke-width:3;}#graph-div .disabled,#graph-div .disabled circle,#graph-div .disabled text{fill:lightgray;}#graph-div .disabled text{fill:#efefef;}#graph-div .section-3 rect,#graph-div .section-3 path,#graph-div .section-3 circle,#graph-div .section-3 polygon,#graph-div .section-3 path{fill:hsl(300, 100%, 76.2745098039%);}#graph-div .section-3 text{fill:black;}#graph-div .node-icon-3{font-size:40px;color:black;}#graph-div .section-edge-3{stroke:hsl(300, 100%, 76.2745098039%);}#graph-div .edge-depth-3{stroke-width:5;}#graph-div .section-3 line{stroke:hsl(120, 100%, 86.2745098039%);stroke-width:3;}#graph-div .disabled,#graph-div .disabled circle,#graph-div .disabled text{fill:lightgray;}#graph-div .disabled text{fill:#efefef;}#graph-div .section-4 rect,#graph-div .section-4 path,#graph-div .section-4 circle,#graph-div .section-4 polygon,#graph-div .section-4 path{fill:hsl(330, 100%, 76.2745098039%);}#graph-div .section-4 text{fill:black;}#graph-div .node-icon-4{font-size:40px;color:black;}#graph-div .section-edge-4{stroke:hsl(330, 100%, 76.2745098039%);}#graph-div .edge-depth-4{stroke-width:2;}#graph-div .section-4 line{stroke:hsl(150, 100%, 86.2745098039%);stroke-width:3;}#graph-div .disabled,#graph-div .disabled circle,#graph-div .disabled text{fill:lightgray;}#graph-div .disabled text{fill:#efefef;}#graph-div .section-5 rect,#graph-div .section-5 path,#graph-div .section-5 circle,#graph-div .section-5 polygon,#graph-div .section-5 path{fill:hsl(0, 100%, 76.2745098039%);}#graph-div .section-5 text{fill:black;}#graph-div .node-icon-5{font-size:40px;color:black;}#graph-div .section-edge-5{stroke:hsl(0, 100%, 76.2745098039%);}#graph-div .edge-depth-5{stroke-width:-1;}#graph-div .section-5 line{stroke:hsl(180, 100%, 86.2745098039%);stroke-width:3;}#graph-div .disabled,#graph-div .disabled circle,#graph-div .disabled text{fill:lightgray;}#graph-div .disabled text{fill:#efefef;}#graph-div .section-6 rect,#graph-div .section-6 path,#graph-div .section-6 circle,#graph-div .section-6 polygon,#graph-div .section-6 path{fill:hsl(30, 100%, 76.2745098039%);}#graph-div .section-6 text{fill:black;}#graph-div .node-icon-6{font-size:40px;color:black;}#graph-div .section-edge-6{stroke:hsl(30, 100%, 76.2745098039%);}#graph-div .edge-depth-6{stroke-width:-4;}#graph-div .section-6 line{stroke:hsl(210, 100%, 86.2745098039%);stroke-width:3;}#graph-div .disabled,#graph-div .disabled circle,#graph-div .disabled text{fill:lightgray;}#graph-div .disabled text{fill:#efefef;}#graph-div .section-7 rect,#graph-div .section-7 path,#graph-div .section-7 circle,#graph-div .section-7 polygon,#graph-div .section-7 path{fill:hsl(90, 100%, 76.2745098039%);}#graph-div .section-7 text{fill:black;}#graph-div .node-icon-7{font-size:40px;color:black;}#graph-div .section-edge-7{stroke:hsl(90, 100%, 76.2745098039%);}#graph-div .edge-depth-7{stroke-width:-7;}#graph-div .section-7 line{stroke:hsl(270, 100%, 86.2745098039%);stroke-width:3;}#graph-div .disabled,#graph-div .disabled circle,#graph-div .disabled text{fill:lightgray;}#graph-div .disabled text{fill:#efefef;}#graph-div .section-8 rect,#graph-div .section-8 path,#graph-div .section-8 circle,#graph-div .section-8 polygon,#graph-div .section-8 path{fill:hsl(150, 100%, 76.2745098039%);}#graph-div .section-8 text{fill:black;}#graph-div .node-icon-8{font-size:40px;color:black;}#graph-div .section-edge-8{stroke:hsl(150, 100%, 76.2745098039%);}#graph-div .edge-depth-8{stroke-width:-10;}#graph-div .section-8 line{stroke:hsl(330, 100%, 86.2745098039%);stroke-width:3;}#graph-div .disabled,#graph-div .disabled circle,#graph-div .disabled text{fill:lightgray;}#graph-div .disabled text{fill:#efefef;}#graph-div .section-9 rect,#graph-div .section-9 path,#graph-div .section-9 circle,#graph-div .section-9 polygon,#graph-div .section-9 path{fill:hsl(180, 100%, 76.2745098039%);}#graph-div .section-9 text{fill:black;}#graph-div .node-icon-9{font-size:40px;color:black;}#graph-div .section-edge-9{stroke:hsl(180, 100%, 76.2745098039%);}#graph-div .edge-depth-9{stroke-width:-13;}#graph-div .section-9 line{stroke:hsl(0, 100%, 86.2745098039%);stroke-width:3;}#graph-div .disabled,#graph-div .disabled circle,#graph-div .disabled text{fill:lightgray;}#graph-div .disabled text{fill:#efefef;}#graph-div .section-10 rect,#graph-div .section-10 path,#graph-div .section-10 circle,#graph-div .section-10 polygon,#graph-div .section-10 path{fill:hsl(210, 100%, 76.2745098039%);}#graph-div .section-10 text{fill:black;}#graph-div .node-icon-10{font-size:40px;color:black;}#graph-div .section-edge-10{stroke:hsl(210, 100%, 76.2745098039%);}#graph-div .edge-depth-10{stroke-width:-16;}#graph-div .section-10 line{stroke:hsl(30, 100%, 86.2745098039%);stroke-width:3;}#graph-div .disabled,#graph-div .disabled circle,#graph-div .disabled text{fill:lightgray;}#graph-div .disabled text{fill:#efefef;}#graph-div .section-root rect,#graph-div .section-root path,#graph-div .section-root circle,#graph-div .section-root polygon{fill:hsl(240, 100%, 46.2745098039%);}#graph-div .section-root text{fill:#ffffff;}#graph-div .icon-container{height:100%;display:flex;justify-content:center;align-items:center;}#graph-div .edge{fill:none;}#graph-div :root{--mermaid-font-family:"trebuchet ms",verdana,arial,sans-serif;}</style><g></g><g></g><g class="mindmap-edges"><path class="edge section-edge-0 edge-depth-2" d="M 274.7892217817255,337.0969207177143 L 264.5234233476133,367.3329370568696 L254.25762491350108,397.568953396025"></path><path class="edge section-edge-0 edge-depth-3" d="M 137.89566737978433,282.2848425458267 L 97.74526685399854,302.8056773565354 L57.59486632821276,323.3265121672441"></path><path class="edge section-edge-0 edge-depth-3" d="M 144.1511664405392,262.2456362143881 L 128.30319356759242,232.75803494464827 L112.45522069464563,203.27043367490836"></path><path class="edge section-edge-0 edge-depth-2" d="M 265.54168228935663,317.69372450813086 L 215.4319656830832,299.17578300206543 L165.32224907680978,280.657841496"></path><path class="edge section-edge-0 edge-depth-1" d="M 424.1317696243158,296.69314867820157 L 359.2514330485855,308.45533477648 L294.37109647285524,320.21752087475846"></path><path class="edge section-edge-0 edge-depth-3" d="M 424.5696222870166,123.77679073935275 L 369.0795327179314,137.68501130750005 L313.58944314884616,151.59323187564735"></path><path class="edge section-edge-0 edge-depth-3" d="M 432.2672481164087,106.78656337269749 L 416.97846821805547,77.01497364985586 L401.6896883197022,47.24338392701425"></path><path class="edge section-edge-0 edge-depth-3" d="M 453.0040314067156,114.4535658556441 L 502.2964797793974,94.30136675005704 L551.5889281520791,74.14916764446998"></path><path class="edge section-edge-0 edge-depth-2" d="M 475.89194858421797,193.7629812150016 L 460.8566366457911,163.65627570463707 L445.8213247073643,133.54957019427255"></path><path class="edge section-edge-0 edge-depth-2" d="M 497.5911329576859,206.90410341635197 L 556.227959042927,205.815222604979 L614.864785128168,204.72634179360597"></path><path class="edge section-edge-0 edge-depth-1" d="M 445.6345648786807,280.6186437941891 L 460.7424528953717,250.600005590026 L475.8503409120627,220.5813673858629"></path><path class="edge section-edge-0 edge-depth-0" d="M 520.4909108413199,355.2594203395563 L 485.6895589150413,329.1403998201766 L450.88820698876265,303.02137930079687"></path><path class="edge section-edge-1 edge-depth-1" d="M 619.1873615203972,444.66268112974717 L 576.924732541592,470.5643015980303 L534.6621035627868,496.4659220663134"></path><path class="edge section-edge-1 edge-depth-1" d="M 616.9810911764225,436.45558276196476 L 543.9166116590233,434.65789951082263 L470.852132141624,432.8602162596805"></path><path class="edge section-edge-1 edge-depth-1" d="M 639.7415653972632,449.65826042738917 L 657.4797793795269,478.97533152229494 L675.2179933617906,508.2924026172007"></path><path class="edge section-edge-1 edge-depth-1" d="M 646.1842898109704,432.0141042771347 L 703.6296673910298,412.5643603508729 L761.0750449710891,393.114616424611"></path><path class="edge section-edge-1 edge-depth-2" d="M 824.9047515591392,476.44358671997696 L 866.0088421622982,450.8822611996928 L907.1129327654571,425.3209356794086"></path><path class="edge section-edge-1 edge-depth-2" d="M 811.8693813227411,499.3619131200631 L 811.2472035308525,530.7261945052906 L810.6250257389639,562.090475890518"></path><path class="edge section-edge-1 edge-depth-2" d="M 826.1545563336236,489.78195781606075 L 878.2117778216445,509.9424810116476 L930.2689993096654,530.1030042072344"></path><path class="edge section-edge-1 edge-depth-1" d="M 646.4802548591961,440.6511014981601 L 722.0717165012115,460.59469784088435 L797.6631781432268,480.5382941836086"></path><path class="edge section-edge-1 edge-depth-1" d="M 635.3908118502669,422.2182718996322 L 642.8912871210464,390.131104719621 L650.3917623918259,358.04393753960983"></path><path class="edge section-edge-1 edge-depth-0" d="M 544.6070372486313,373.10235489780837 L 582.2322418387275,400.5439623299837 L619.8574464288238,427.985569762159"></path></g><g class="mindmap-nodes"><g transform="translate(502.4332431410809, 345.36339256986355)" class="mindmap-node section--1 section-root"><g transform="translate(30.0546875, 18.9)"><circle r="30.0546875" class="node-bkg node-circle" id="node-0"></circle></g><g transform="translate(30.0546875, 5)"><text text-anchor="middle" dominant-baseline="middle" alignment-baseline="middle" dy="1em"><tspan dy="1em" x="0">HTML</tspan></text></g></g><g transform="translate(380.9497809390017, 275.11740707048966)" class="mindmap-node section-0"><g><path d="M0 32.8 v-27.799999999999997 q0,-5 5,-5 h105.8828125 q5,0 5,5 v32.8 H0 Z" class="node-bkg node-no-border" id="node-1"></path><line y2="37.8" x2="115.8828125" y1="37.8" x1="0" class="node-line-0"></line></g><g transform="translate(57.94140625, 5)"><text text-anchor="middle" dominant-baseline="middle" alignment-baseline="middle" dy="1em"><tspan dy="1em" x="0">Fundamentos</tspan></text></g></g><g transform="translate(232.32261640816932, 303.9932624824704)" class="mindmap-node section-0"><g><path d="M0 32.8 v-27.799999999999997 q0,-5 5,-5 h84.578125 q5,0 5,5 v32.8 H0 Z" class="node-bkg node-no-border" id="node-2"></path><line y2="37.8" x2="94.578125" y1="37.8" x1="0" class="node-line-0"></line></g><g transform="translate(47.2890625, 5)"><text text-anchor="middle" dominant-baseline="middle" alignment-baseline="middle" dy="1em"><tspan dy="1em" x="0">Estructura</tspan></text></g></g><g transform="translate(206.18516778705725, 392.8726116312689)" class="mindmap-node section-0"><g><path d="M0 32.8 v-27.799999999999997 q0,-5 5,-5 h76.5 q5,0 5,5 v32.8 H0 Z" class="node-bkg node-no-border" id="node-3"></path><line y2="37.8" x2="86.5" y1="37.8" x1="0" class="node-line-0"></line></g><g transform="translate(43.25, 5)"><text text-anchor="middle" dominant-baseline="middle" alignment-baseline="middle" dy="1em"><tspan dy="1em" x="0">DOCTYPE</tspan></text></g></g><g transform="translate(121.19756495799709, 256.5583035216605)" class="mindmap-node section-0"><g><path d="M0 32.8 v-27.799999999999997 q0,-5 5,-5 h50.109375 q5,0 5,5 v32.8 H0 Z" class="node-bkg node-no-border" id="node-4"></path><line y2="37.8" x2="60.109375" y1="37.8" x1="0" class="node-line-0"></line></g><g transform="translate(30.0546875, 5)"><text text-anchor="middle" dominant-baseline="middle" alignment-baseline="middle" dy="1em"><tspan dy="1em" x="0">HTML</tspan></text></g></g><g transform="translate(15, 311.25305119141035)" class="mindmap-node section-0"><g><path d="M0 32.8 v-27.799999999999997 q0,-5 5,-5 h48.4765625 q5,0 5,5 v32.8 H0 Z" class="node-bkg node-no-border" id="node-5"></path><line y2="37.8" x2="58.4765625" y1="37.8" x1="0" class="node-line-0"></line></g><g transform="translate(29.23828125, 5)"><text text-anchor="middle" dominant-baseline="middle" alignment-baseline="middle" dy="1em"><tspan dy="1em" x="0">HEAD</tspan></text></g></g><g transform="translate(75.52991592718774, 171.157766367636)" class="mindmap-node section-0"><g><path d="M0 32.8 v-27.799999999999997 q0,-5 5,-5 h49.6484375 q5,0 5,5 v32.8 H0 Z" class="node-bkg node-no-border" id="node-6"></path><line y2="37.8" x2="59.6484375" y1="37.8" x1="0" class="node-line-0"></line></g><g transform="translate(29.82421875, 5)"><text text-anchor="middle" dominant-baseline="middle" alignment-baseline="middle" dy="1em"><tspan dy="1em" x="0">BODY</tspan></text></g></g><g transform="translate(444.92965610174167, 188.28260410956239)" class="mindmap-node section-0"><g><path d="M0 32.8 v-27.799999999999997 q0,-5 5,-5 h65.328125 q5,0 5,5 v32.8 H0 Z" class="node-bkg node-no-border" id="node-7"></path><line y2="37.8" x2="75.328125" y1="37.8" x1="0" class="node-line-0"></line></g><g transform="translate(37.6640625, 5)"><text text-anchor="middle" dominant-baseline="middle" alignment-baseline="middle" dy="1em"><tspan dy="1em" x="0">Sintaxis</tspan></text></g></g><g transform="translate(395.3148671898406, 101.22994729971174)" class="mindmap-node section-0"><g><path d="M0 32.8 v-27.799999999999997 q0,-5 5,-5 h77.609375 q5,0 5,5 v32.8 H0 Z" class="node-bkg node-no-border" id="node-8"></path><line y2="37.8" x2="87.609375" y1="37.8" x1="0" class="node-line-0"></line></g><g transform="translate(43.8046875, 5)"><text text-anchor="middle" dominant-baseline="middle" alignment-baseline="middle" dy="1em"><tspan dy="1em" x="0">Etiquetas</tspan></text></g></g><g transform="translate(255.4652919960222, 136.34007531528835)" class="mindmap-node section-0"><g><path d="M0 32.8 v-27.799999999999997 q0,-5 5,-5 h77.1484375 q5,0 5,5 v32.8 H0 Z" class="node-bkg node-no-border" id="node-9"></path><line y2="37.8" x2="87.1484375" y1="37.8" x1="0" class="node-line-0"></line></g><g transform="translate(43.57421875, 5)"><text text-anchor="middle" dominant-baseline="middle" alignment-baseline="middle" dy="1em"><tspan dy="1em" x="0">Atributos</tspan></text></g></g><g transform="translate(352.53660049627035, 15)" class="mindmap-node section-0"><g><path d="M0 32.8 v-27.799999999999997 q0,-5 5,-5 h74.6015625 q5,0 5,5 v32.8 H0 Z" class="node-bkg node-no-border" id="node-10"></path><line y2="37.8" x2="84.6015625" y1="37.8" x1="0" class="node-line-0"></line></g><g transform="translate(42.30078125, 5)"><text text-anchor="middle" dominant-baseline="middle" alignment-baseline="middle" dy="1em"><tspan dy="1em" x="0">Apertura</tspan></text></g></g><g transform="translate(533.3249673689542, 49.57278620040234)" class="mindmap-node section-0"><g><path d="M0 32.8 v-27.799999999999997 q0,-5 5,-5 h54.296875 q5,0 5,5 v32.8 H0 Z" class="node-bkg node-no-border" id="node-11"></path><line y2="37.8" x2="64.296875" y1="37.8" x1="0" class="node-line-0"></line></g><g transform="translate(32.1484375, 5)"><text text-anchor="middle" dominant-baseline="middle" alignment-baseline="middle" dy="1em"><tspan dy="1em" x="0">Cierre</tspan></text></g></g><g transform="translate(574.8504807341122, 185.54784110039554)" class="mindmap-node section-0"><g><path d="M0 32.8 v-27.799999999999997 q0,-5 5,-5 h100.0234375 q5,0 5,5 v32.8 H0 Z" class="node-bkg node-no-border" id="node-12"></path><line y2="37.8" x2="110.0234375" y1="37.8" x1="0" class="node-line-0"></line></g><g transform="translate(55.01171875, 5)"><text text-anchor="middle" dominant-baseline="middle" alignment-baseline="middle" dy="1em"><tspan dy="1em" x="0">Comentarios</tspan></text></g></g><g transform="translate(552.5390530363742, 417.92453209010387)" class="mindmap-node section-1"><g><path d="M0 32.8 v-27.799999999999997 q0,-5 5,-5 h148.875 q5,0 5,5 v32.8 H0 Z" class="node-bkg node-no-border" id="node-13"></path><line y2="37.8" x2="158.875" y1="37.8" x1="0" class="node-line-1"></line></g><g transform="translate(79.4375, 5)"><text text-anchor="middle" dominant-baseline="middle" alignment-baseline="middle" dy="1em"><tspan dy="1em" x="0">Propósito   Etiquetas</tspan></text></g></g><g transform="translate(427.6463495468098, 485.40407110595675)" class="mindmap-node section-1"><g><path d="M0 32.8 v-27.799999999999997 q0,-5 5,-5 h178.453125 q5,0 5,5 v32.8 H0 Z" class="node-bkg node-no-border" id="node-14"></path><line y2="37.8" x2="188.453125" y1="37.8" x1="0" class="node-line-1"></line></g><g transform="translate(94.2265625, 5)"><text text-anchor="middle" dominant-baseline="middle" alignment-baseline="middle" dy="1em"><tspan dy="1em" x="0">Encabezados   y   párrafos</tspan></text></g></g><g transform="translate(418.81370153167234, 413.59126693154144)" class="mindmap-node section-1"><g><path d="M0 32.8 v-27.799999999999997 q0,-5 5,-5 h64.0859375 q5,0 5,5 v32.8 H0 Z" class="node-bkg node-no-border" id="node-15"></path><line y2="37.8" x2="74.0859375" y1="37.8" x1="0" class="node-line-1"></line></g><g transform="translate(37.04296875, 5)"><text text-anchor="middle" dominant-baseline="middle" alignment-baseline="middle" dy="1em"><tspan dy="1em" x="0">Enlaces</tspan></text></g></g><g transform="translate(652.5376932226796, 502.22613095448605)" class="mindmap-node section-1"><g><path d="M0 32.8 v-27.799999999999997 q0,-5 5,-5 h50.890625 q5,0 5,5 v32.8 H0 Z" class="node-bkg node-no-border" id="node-16"></path><line y2="37.8" x2="60.890625" y1="37.8" x1="0" class="node-line-1"></line></g><g transform="translate(30.4453125, 5)"><text text-anchor="middle" dominant-baseline="middle" alignment-baseline="middle" dy="1em"><tspan dy="1em" x="0">Listas</tspan></text></g></g><g transform="translate(742.4116879956854, 369.40418861164187)" class="mindmap-node section-1"><g><path d="M0 32.8 v-27.799999999999997 q0,-5 5,-5 h55.7421875 q5,0 5,5 v32.8 H0 Z" class="node-bkg node-no-border" id="node-17"></path><line y2="37.8" x2="65.7421875" y1="37.8" x1="0" class="node-line-1"></line></g><g transform="translate(32.87109375, 5)"><text text-anchor="middle" dominant-baseline="middle" alignment-baseline="middle" dy="1em"><tspan dy="1em" x="0">Tablas</tspan></text></g></g><g transform="translate(761.5653174660487, 465.4648635916649)" class="mindmap-node section-1"><g><path d="M0 32.8 v-27.799999999999997 q0,-5 5,-5 h91.203125 q5,0 5,5 v32.8 H0 Z" class="node-bkg node-no-border" id="node-18"></path><line y2="37.8" x2="101.203125" y1="37.8" x1="0" class="node-line-1"></line></g><g transform="translate(50.6015625, 5)"><text text-anchor="middle" dominant-baseline="middle" alignment-baseline="middle" dy="1em"><tspan dy="1em" x="0">Multimedia</tspan></text></g></g><g transform="translate(876.1672106085476, 398.4996588077207)" class="mindmap-node section-1"><g><path d="M0 32.8 v-27.799999999999997 q0,-5 5,-5 h77.3671875 q5,0 5,5 v32.8 H0 Z" class="node-bkg node-no-border" id="node-19"></path><line y2="37.8" x2="87.3671875" y1="37.8" x1="0" class="node-line-1"></line></g><g transform="translate(43.68359375, 5)"><text text-anchor="middle" dominant-baseline="middle" alignment-baseline="middle" dy="1em"><tspan dy="1em" x="0">Imágenes</tspan></text></g></g><g transform="translate(776.3783083456564, 558.1875254189163)" class="mindmap-node section-1"><g><path d="M0 32.8 v-27.799999999999997 q0,-5 5,-5 h57.8984375 q5,0 5,5 v32.8 H0 Z" class="node-bkg node-no-border" id="node-20"></path><line y2="37.8" x2="67.8984375" y1="37.8" x1="0" class="node-line-1"></line></g><g transform="translate(33.94921875, 5)"><text text-anchor="middle" dominant-baseline="middle" alignment-baseline="middle" dy="1em"><tspan dy="1em" x="0">Videos</tspan></text></g></g><g transform="translate(913.4285506772404, 516.6200984316304)" class="mindmap-node section-1"><g><path d="M0 32.8 v-27.799999999999997 q0,-5 5,-5 h51.65625 q5,0 5,5 v32.8 H0 Z" class="node-bkg node-no-border" id="node-21"></path><line y2="37.8" x2="61.65625" y1="37.8" x1="0" class="node-line-1"></line></g><g transform="translate(30.828125, 5)"><text text-anchor="middle" dominant-baseline="middle" alignment-baseline="middle" dy="1em"><tspan dy="1em" x="0">Audio</tspan></text></g></g><g transform="translate(601.4466462057186, 324.5376773491382)" class="mindmap-node section-1"><g><path d="M0 32.8 v-27.799999999999997 q0,-5 5,-5 h94.71875 q5,0 5,5 v32.8 H0 Z" class="node-bkg node-no-border" id="node-22"></path><line y2="37.8" x2="104.71875" y1="37.8" x1="0" class="node-line-1"></line></g><g transform="translate(52.359375, 5)"><text text-anchor="middle" dominant-baseline="middle" alignment-baseline="middle" dy="1em"><tspan dy="1em" x="0">Formularios</tspan></text></g></g></g></svg>