<svg aria-roledescription="mindmap" role="graphics-document document" viewBox="5 5 798.2489013671875 478.6234130859375" style="max-width: 100%;" xmlns="http://www.w3.org/2000/svg" width="100%" id="graph-div" height="100%" xmlns:xlink="http://www.w3.org/1999/xlink"><style>@import url("https://cdnjs.cloudflare.com/ajax/libs/font-awesome/6.2.1/css/all.min.css");'</style><style>#graph-div{font-family:"trebuchet ms",verdana,arial,sans-serif;font-size:16px;fill:#333;}#graph-div .error-icon{fill:#552222;}#graph-div .error-text{fill:#552222;stroke:#552222;}#graph-div .edge-thickness-normal{stroke-width:2px;}#graph-div .edge-thickness-thick{stroke-width:3.5px;}#graph-div .edge-pattern-solid{stroke-dasharray:0;}#graph-div .edge-pattern-dashed{stroke-dasharray:3;}#graph-div .edge-pattern-dotted{stroke-dasharray:2;}#graph-div .marker{fill:#333333;stroke:#333333;}#graph-div .marker.cross{stroke:#333333;}#graph-div svg{font-family:"trebuchet ms",verdana,arial,sans-serif;font-size:16px;}#graph-div .edge{stroke-width:3;}#graph-div .section--1 rect,#graph-div .section--1 path,#graph-div .section--1 circle,#graph-div .section--1 polygon,#graph-div .section--1 path{fill:hsl(240, 100%, 76.2745098039%);}#graph-div .section--1 text{fill:#ffffff;}#graph-div .node-icon--1{font-size:40px;color:#ffffff;}#graph-div .section-edge--1{stroke:hsl(240, 100%, 76.2745098039%);}#graph-div .edge-depth--1{stroke-width:17;}#graph-div .section--1 line{stroke:hsl(60, 100%, 86.2745098039%);stroke-width:3;}#graph-div .disabled,#graph-div .disabled circle,#graph-div .disabled text{fill:lightgray;}#graph-div .disabled text{fill:#efefef;}#graph-div .section-0 rect,#graph-div .section-0 path,#graph-div .section-0 circle,#graph-div .section-0 polygon,#graph-div .section-0 path{fill:hsl(60, 100%, 73.5294117647%);}#graph-div .section-0 text{fill:black;}#graph-div .node-icon-0{font-size:40px;color:black;}#graph-div .section-edge-0{stroke:hsl(60, 100%, 73.5294117647%);}#graph-div .edge-depth-0{stroke-width:14;}#graph-div .section-0 line{stroke:hsl(240, 100%, 83.5294117647%);stroke-width:3;}#graph-div .disabled,#graph-div .disabled circle,#graph-div .disabled text{fill:lightgray;}#graph-div .disabled text{fill:#efefef;}#graph-div .section-1 rect,#graph-div .section-1 path,#graph-div .section-1 circle,#graph-div .section-1 polygon,#graph-div .section-1 path{fill:hsl(80, 100%, 76.2745098039%);}#graph-div .section-1 text{fill:black;}#graph-div .node-icon-1{font-size:40px;color:black;}#graph-div .section-edge-1{stroke:hsl(80, 100%, 76.2745098039%);}#graph-div .edge-depth-1{stroke-width:11;}#graph-div .section-1 line{stroke:hsl(260, 100%, 86.2745098039%);stroke-width:3;}#graph-div .disabled,#graph-div .disabled circle,#graph-div .disabled text{fill:lightgray;}#graph-div .disabled text{fill:#efefef;}#graph-div .section-2 rect,#graph-div .section-2 path,#graph-div .section-2 circle,#graph-div .section-2 polygon,#graph-div .section-2 path{fill:hsl(270, 100%, 76.2745098039%);}#graph-div .section-2 text{fill:#ffffff;}#graph-div .node-icon-2{font-size:40px;color:#ffffff;}#graph-div .section-edge-2{stroke:hsl(270, 100%, 76.2745098039%);}#graph-div .edge-depth-2{stroke-width:8;}#graph-div .section-2 line{stroke:hsl(90, 100%, 86.2745098039%);stroke-width:3;}#graph-div .disabled,#graph-div .disabled circle,#graph-div .disabled text{fill:lightgray;}#graph-div .disabled text{fill:#efefef;}#graph-div .section-3 rect,#graph-div .section-3 path,#graph-div .section-3 circle,#graph-div .section-3 polygon,#graph-div .section-3 path{fill:hsl(300, 100%, 76.2745098039%);}#graph-div .section-3 text{fill:black;}#graph-div .node-icon-3{font-size:40px;color:black;}#graph-div .section-edge-3{stroke:hsl(300, 100%, 76.2745098039%);}#graph-div .edge-depth-3{stroke-width:5;}#graph-div .section-3 line{stroke:hsl(120, 100%, 86.2745098039%);stroke-width:3;}#graph-div .disabled,#graph-div .disabled circle,#graph-div .disabled text{fill:lightgray;}#graph-div .disabled text{fill:#efefef;}#graph-div .section-4 rect,#graph-div .section-4 path,#graph-div .section-4 circle,#graph-div .section-4 polygon,#graph-div .section-4 path{fill:hsl(330, 100%, 76.2745098039%);}#graph-div .section-4 text{fill:black;}#graph-div .node-icon-4{font-size:40px;color:black;}#graph-div .section-edge-4{stroke:hsl(330, 100%, 76.2745098039%);}#graph-div .edge-depth-4{stroke-width:2;}#graph-div .section-4 line{stroke:hsl(150, 100%, 86.2745098039%);stroke-width:3;}#graph-div .disabled,#graph-div .disabled circle,#graph-div .disabled text{fill:lightgray;}#graph-div .disabled text{fill:#efefef;}#graph-div .section-5 rect,#graph-div .section-5 path,#graph-div .section-5 circle,#graph-div .section-5 polygon,#graph-div .section-5 path{fill:hsl(0, 100%, 76.2745098039%);}#graph-div .section-5 text{fill:black;}#graph-div .node-icon-5{font-size:40px;color:black;}#graph-div .section-edge-5{stroke:hsl(0, 100%, 76.2745098039%);}#graph-div .edge-depth-5{stroke-width:-1;}#graph-div .section-5 line{stroke:hsl(180, 100%, 86.2745098039%);stroke-width:3;}#graph-div .disabled,#graph-div .disabled circle,#graph-div .disabled text{fill:lightgray;}#graph-div .disabled text{fill:#efefef;}#graph-div .section-6 rect,#graph-div .section-6 path,#graph-div .section-6 circle,#graph-div .section-6 polygon,#graph-div .section-6 path{fill:hsl(30, 100%, 76.2745098039%);}#graph-div .section-6 text{fill:black;}#graph-div .node-icon-6{font-size:40px;color:black;}#graph-div .section-edge-6{stroke:hsl(30, 100%, 76.2745098039%);}#graph-div .edge-depth-6{stroke-width:-4;}#graph-div .section-6 line{stroke:hsl(210, 100%, 86.2745098039%);stroke-width:3;}#graph-div .disabled,#graph-div .disabled circle,#graph-div .disabled text{fill:lightgray;}#graph-div .disabled text{fill:#efefef;}#graph-div .section-7 rect,#graph-div .section-7 path,#graph-div .section-7 circle,#graph-div .section-7 polygon,#graph-div .section-7 path{fill:hsl(90, 100%, 76.2745098039%);}#graph-div .section-7 text{fill:black;}#graph-div .node-icon-7{font-size:40px;color:black;}#graph-div .section-edge-7{stroke:hsl(90, 100%, 76.2745098039%);}#graph-div .edge-depth-7{stroke-width:-7;}#graph-div .section-7 line{stroke:hsl(270, 100%, 86.2745098039%);stroke-width:3;}#graph-div .disabled,#graph-div .disabled circle,#graph-div .disabled text{fill:lightgray;}#graph-div .disabled text{fill:#efefef;}#graph-div .section-8 rect,#graph-div .section-8 path,#graph-div .section-8 circle,#graph-div .section-8 polygon,#graph-div .section-8 path{fill:hsl(150, 100%, 76.2745098039%);}#graph-div .section-8 text{fill:black;}#graph-div .node-icon-8{font-size:40px;color:black;}#graph-div .section-edge-8{stroke:hsl(150, 100%, 76.2745098039%);}#graph-div .edge-depth-8{stroke-width:-10;}#graph-div .section-8 line{stroke:hsl(330, 100%, 86.2745098039%);stroke-width:3;}#graph-div .disabled,#graph-div .disabled circle,#graph-div .disabled text{fill:lightgray;}#graph-div .disabled text{fill:#efefef;}#graph-div .section-9 rect,#graph-div .section-9 path,#graph-div .section-9 circle,#graph-div .section-9 polygon,#graph-div .section-9 path{fill:hsl(180, 100%, 76.2745098039%);}#graph-div .section-9 text{fill:black;}#graph-div .node-icon-9{font-size:40px;color:black;}#graph-div .section-edge-9{stroke:hsl(180, 100%, 76.2745098039%);}#graph-div .edge-depth-9{stroke-width:-13;}#graph-div .section-9 line{stroke:hsl(0, 100%, 86.2745098039%);stroke-width:3;}#graph-div .disabled,#graph-div .disabled circle,#graph-div .disabled text{fill:lightgray;}#graph-div .disabled text{fill:#efefef;}#graph-div .section-10 rect,#graph-div .section-10 path,#graph-div .section-10 circle,#graph-div .section-10 polygon,#graph-div .section-10 path{fill:hsl(210, 100%, 76.2745098039%);}#graph-div .section-10 text{fill:black;}#graph-div .node-icon-10{font-size:40px;color:black;}#graph-div .section-edge-10{stroke:hsl(210, 100%, 76.2745098039%);}#graph-div .edge-depth-10{stroke-width:-16;}#graph-div .section-10 line{stroke:hsl(30, 100%, 86.2745098039%);stroke-width:3;}#graph-div .disabled,#graph-div .disabled circle,#graph-div .disabled text{fill:lightgray;}#graph-div .disabled text{fill:#efefef;}#graph-div .section-root rect,#graph-div .section-root path,#graph-div .section-root circle,#graph-div .section-root polygon{fill:hsl(240, 100%, 46.2745098039%);}#graph-div .section-root text{fill:#ffffff;}#graph-div .icon-container{height:100%;display:flex;justify-content:center;align-items:center;}#graph-div .edge{fill:none;}#graph-div :root{--mermaid-font-family:"trebuchet ms",verdana,arial,sans-serif;}</style><g></g><g></g><g class="mindmap-edges"><path class="edge section-edge-0 edge-depth-1" d="M 376.23375104269917,200.4257339760474 L 333.64997056350444,216.98312613995907 L291.0661900843097,233.54051830387073"></path><path class="edge section-edge-0 edge-depth-1" d="M 402.323457628021,203.84226842438017 L 437.2419380901674,229.36905739552364 L472.16041855231384,254.8958463666671"></path><path class="edge section-edge-0 edge-depth-1" d="M 375.51575993955646,191.99700694865498 L 333.6621019808533,183.47478504876125 L291.8084440221502,174.95256314886745"></path><path class="edge section-edge-0 edge-depth-0" d="M 391.9058562063557,253.60476494018266 L 391.2763733917319,231.79420382765483 L390.64689057710814,209.98364271512702"></path><path class="edge section-edge-1 edge-depth-1" d="M 518.6980190343625,347.04676817122686 L 574.0800295925603,327.1579469395672 L629.4620401507582,307.2691257079075"></path><path class="edge section-edge-1 edge-depth-1" d="M 514.8556947227512,363.0447716381681 L 542.6330059586542,392.5881198560487 L570.4103171945571,422.13146807392934"></path><path class="edge section-edge-1 edge-depth-1" d="M 490.88004960638284,358.2231758054557 L 444.2315423777118,379.0151058417433 L397.5830351490407,399.80703587803094"></path><path class="edge section-edge-1 edge-depth-1" d="M 501.7075651784235,366.83882283673086 L 495.047662901795,400.9642237147277 L488.38776062516644,435.0896245927246"></path><path class="edge section-edge-1 edge-depth-1" d="M 519.380510196836,354.55936693574137 L 581.297191450313,364.77912967369014 L643.21387270379,374.9988924116389"></path><path class="edge section-edge-1 edge-depth-0" d="M 404.3726598876103,277.55292388965756 L 448.4596761455915,310.3575449332395 L492.5466924035727,343.1621659768215"></path><path class="edge section-edge-2 edge-depth-1" d="M 206.7718481980094,290.93391072682255 L 143.7087765077424,286.68172505827783 L80.64570481747543,282.4295393897331"></path><path class="edge section-edge-2 edge-depth-1" d="M 210.68858215730933,281.79841085453074 L 180.18307557447315,253.79054864962575 L149.67756899163697,225.78268644472075"></path><path class="edge section-edge-2 edge-depth-0" d="M 377.4770877473238,270.6321273787439 L 307.0382310870416,280.27077672623193 L236.59937442675934,289.90942607371994"></path><path class="edge section-edge-3 edge-depth-1" d="M 274.4883018108119,361.90032134133446 L 225.9712772758478,388.3639169142292 L177.45425274088367,414.82751248712395"></path><path class="edge section-edge-3 edge-depth-1" d="M 287.19567327719767,369.710500301246 L 286.1189825793698,404.72050166517147 L285.0422918815419,439.73050302909695"></path><path class="edge section-edge-3 edge-depth-1" d="M 272.6571142751742,354.6148356449344 L 204.59736096764914,354.1486013221552 L136.53760766012408,353.682366999376"></path><path class="edge section-edge-3 edge-depth-0" d="M 380.75478448475576,278.12822744898165 L 339.9976794948234,311.6580551220819 L299.240574504891,345.1878827951822"></path><path class="edge section-edge-4 edge-depth-1" d="M 625.2833277480775,225.0181475055874 L 683.7909839179538,205.78859523199398 L742.2986400878301,186.55904295840057"></path><path class="edge section-edge-4 edge-depth-1" d="M 625.3535886975264,234.16576851549885 L 685.5883555120827,252.942801869218 L745.8231223266389,271.71983522293715"></path><path class="edge section-edge-4 edge-depth-1" d="M 614.3788579581715,215.0795405369882 L 621.6266511325238,183.40265210355196 L628.8744443068761,151.72576367011573"></path><path class="edge section-edge-4 edge-depth-0" d="M 407.10682718690794,265.9718568705352 L 501.6859266454737,249.1501005657016 L596.2650261040395,232.328344260868"></path><path class="edge section-edge-5 edge-depth-1" d="M 373.2655657873117,124.10080404155985 L 410.21586150695407,95.6837215717675 L447.16615722659645,67.26663910197514"></path><path class="edge section-edge-5 edge-depth-1" d="M 363.58716780063367,118.40919161198033 L 368.7810198685595,83.57260376703178 L373.97487193648533,48.73601592208321"></path><path class="edge section-edge-5 edge-depth-1" d="M 346.4949777288659,131.35368920366147 L 290.39724236083134,124.22277282359718 L234.2995069927968,117.0918564435329"></path><path class="edge section-edge-5 edge-depth-1" d="M 376.32002415855675,131.95936951976813 L 421.0990286094584,128.10661798525237 L465.87803306036005,124.2538664507366"></path><path class="edge section-edge-5 edge-depth-1" d="M 349.7966002719959,123.70921579195391 L 313.51614033016324,93.82917620417467 L277.2356803883306,63.94913661639542"></path><path class="edge section-edge-5 edge-depth-0" d="M 388.99361101242613,253.9762415444274 L 376.8569175421493,200.9218645157967 L364.72022407187245,147.867487487166"></path><path class="edge section-edge-6 edge-depth-0" d="M 404.154017151713,259.35753461457807 L 441.5351055949385,230.12132180474953 L478.916194038164,200.885108994921"></path></g><g class="mindmap-nodes"><g transform="translate(345.65500290859836, 249.69852149752987)" class="mindmap-node section--1 section-root"><g transform="translate(46.68359375, 18.9)"><circle r="46.68359375" class="node-bkg node-circle" id="node-0"></circle></g><g transform="translate(46.68359375, 5)"><text text-anchor="middle" dominant-baseline="middle" alignment-baseline="middle" dy="1em"><tspan dy="1em" x="0">Javascript</tspan></text></g></g><g transform="translate(347.16727512486545, 176.0898861577798)" class="mindmap-node section-0"><g><path d="M0 32.8 v-27.799999999999997 q0,-5 5,-5 h76.09375 q5,0 5,5 v32.8 H0 Z" class="node-bkg node-no-border" id="node-1"></path><line y2="37.8" x2="86.09375" y1="37.8" x1="0" class="node-line-0"></line></g><g transform="translate(43.046875, 5)"><text text-anchor="middle" dominant-baseline="middle" alignment-baseline="middle" dy="1em"><tspan dy="1em" x="0">Variables</tspan></text></g></g><g transform="translate(247.72250975214342, 220.07636612213832)" class="mindmap-node section-0"><g><path d="M0 32.8 v-27.799999999999997 q0,-5 5,-5 h48.7265625 q5,0 5,5 v32.8 H0 Z" class="node-bkg node-no-border" id="node-2"></path><line y2="37.8" x2="58.7265625" y1="37.8" x1="0" class="node-line-0"></line></g><g transform="translate(29.36328125, 5)"><text text-anchor="middle" dominant-baseline="middle" alignment-baseline="middle" dy="1em"><tspan dy="1em" x="0">const</tspan></text></g></g><g transform="translate(464.0470698054694, 244.84822863326744)" class="mindmap-node section-0"><g><path d="M0 32.8 v-27.799999999999997 q0,-5 5,-5 h30.4453125 q5,0 5,5 v32.8 H0 Z" class="node-bkg node-no-border" id="node-3"></path><line y2="37.8" x2="40.4453125" y1="37.8" x1="0" class="node-line-0"></line></g><g transform="translate(20.22265625, 5)"><text text-anchor="middle" dominant-baseline="middle" alignment-baseline="middle" dy="1em"><tspan dy="1em" x="0">let</tspan></text></g></g><g transform="translate(254.9889600868412, 153.05968393974263)" class="mindmap-node section-0"><g><path d="M0 32.8 v-27.799999999999997 q0,-5 5,-5 h34.2421875 q5,0 5,5 v32.8 H0 Z" class="node-bkg node-no-border" id="node-4"></path><line y2="37.8" x2="44.2421875" y1="37.8" x1="0" class="node-line-0"></line></g><g transform="translate(22.12109375, 5)"><text text-anchor="middle" dominant-baseline="middle" alignment-baseline="middle" dy="1em"><tspan dy="1em" x="0">var</tspan></text></g></g><g transform="translate(441.78388063258467, 333.2165683689492)" class="mindmap-node section-1"><g><path d="M0 32.8 v-27.799999999999997 q0,-5 5,-5 h115.59375 q5,0 5,5 v32.8 H0 Z" class="node-bkg node-no-border" id="node-5"></path><line y2="37.8" x2="125.59375" y1="37.8" x1="0" class="node-line-1"></line></g><g transform="translate(62.796875, 5)"><text text-anchor="middle" dominant-baseline="middle" alignment-baseline="middle" dy="1em"><tspan dy="1em" x="0">Tipos   de   Datos</tspan></text></g></g><g transform="translate(605.141803552536, 283.2993255101852)" class="mindmap-node section-1"><g><path d="M0 32.8 v-27.799999999999997 q0,-5 5,-5 h66.875 q5,0 5,5 v32.8 H0 Z" class="node-bkg node-no-border" id="node-6"></path><line y2="37.8" x2="76.875" y1="37.8" x1="0" class="node-line-1"></line></g><g transform="translate(38.4375, 5)"><text text-anchor="middle" dominant-baseline="middle" alignment-baseline="middle" dy="1em"><tspan dy="1em" x="0">Number</tspan></text></g></g><g transform="translate(549.8883812847237, 414.15967134314826)" class="mindmap-node section-1"><g><path d="M0 32.8 v-27.799999999999997 q0,-5 5,-5 h51.59375 q5,0 5,5 v32.8 H0 Z" class="node-bkg node-no-border" id="node-7"></path><line y2="37.8" x2="61.59375" y1="37.8" x1="0" class="node-line-1"></line></g><g transform="translate(30.796875, 5)"><text text-anchor="middle" dominant-baseline="middle" alignment-baseline="middle" dy="1em"><tspan dy="1em" x="0">String</tspan></text></g></g><g transform="translate(345.3432666228389, 387.0136433145375)" class="mindmap-node section-1"><g><path d="M0 32.8 v-27.799999999999997 q0,-5 5,-5 h67.078125 q5,0 5,5 v32.8 H0 Z" class="node-bkg node-no-border" id="node-8"></path><line y2="37.8" x2="77.078125" y1="37.8" x1="0" class="node-line-1"></line></g><g transform="translate(38.5390625, 5)"><text text-anchor="middle" dominant-baseline="middle" alignment-baseline="middle" dy="1em"><tspan dy="1em" x="0">Boolean</tspan></text></g></g><g transform="translate(447.4051951710053, 430.9118790605063)" class="mindmap-node section-1"><g><path d="M0 32.8 v-27.799999999999997 q0,-5 5,-5 h66.21875 q5,0 5,5 v32.8 H0 Z" class="node-bkg node-no-border" id="node-9"></path><line y2="37.8" x2="76.21875" y1="37.8" x1="0" class="node-line-1"></line></g><g transform="translate(38.109375, 5)"><text text-anchor="middle" dominant-baseline="middle" alignment-baseline="middle" dy="1em"><tspan dy="1em" x="0">Objetos</tspan></text></g></g><g transform="translate(627.8730022680413, 358.5416909784311)" class="mindmap-node section-1"><g><path d="M0 32.8 v-27.799999999999997 q0,-5 5,-5 h50.28125 q5,0 5,5 v32.8 H0 Z" class="node-bkg node-no-border" id="node-10"></path><line y2="37.8" x2="60.28125" y1="37.8" x1="0" class="node-line-1"></line></g><g transform="translate(30.140625, 5)"><text text-anchor="middle" dominant-baseline="middle" alignment-baseline="middle" dy="1em"><tspan dy="1em" x="0">Array</tspan></text></g></g><g transform="translate(176.02692801548483, 273.043031954934)" class="mindmap-node section-2"><g><path d="M0 32.8 v-27.799999999999997 q0,-5 5,-5 h81.421875 q5,0 5,5 v32.8 H0 Z" class="node-bkg node-no-border" id="node-11"></path><line y2="37.8" x2="91.421875" y1="37.8" x1="0" class="node-line-2"></line></g><g transform="translate(45.7109375, 5)"><text text-anchor="middle" dominant-baseline="middle" alignment-baseline="middle" dy="1em"><tspan dy="1em" x="0">Funciones</tspan></text></g></g><g transform="translate(15, 262.5204181616217)" class="mindmap-node section-2"><g><path d="M0 32.8 v-27.799999999999997 q0,-5 5,-5 h91.359375 q5,0 5,5 v32.8 H0 Z" class="node-bkg node-no-border" id="node-12"></path><line y2="37.8" x2="101.359375" y1="37.8" x1="0" class="node-line-2"></line></g><g transform="translate(50.6796875, 5)"><text text-anchor="middle" dominant-baseline="middle" alignment-baseline="middle" dy="1em"><tspan dy="1em" x="0">Par치metros</tspan></text></g></g><g transform="translate(79.54234813346147, 196.73806534431753)" class="mindmap-node section-2"><g><path d="M0 32.8 v-27.799999999999997 q0,-5 5,-5 h108.171875 q5,0 5,5 v32.8 H0 Z" class="node-bkg node-no-border" id="node-13"></path><line y2="37.8" x2="118.171875" y1="37.8" x1="0" class="node-line-2"></line></g><g transform="translate(59.0859375, 5)"><text text-anchor="middle" dominant-baseline="middle" alignment-baseline="middle" dy="1em"><tspan dy="1em" x="0">Valor   Retorno</tspan></text></g></g><g transform="translate(236.4106685810484, 335.817588746634)" class="mindmap-node section-3"><g><path d="M0 32.8 v-27.799999999999997 q0,-5 5,-5 h92.4921875 q5,0 5,5 v32.8 H0 Z" class="node-bkg node-no-border" id="node-14"></path><line y2="37.8" x2="102.4921875" y1="37.8" x1="0" class="node-line-3"></line></g><g transform="translate(51.24609375, 5)"><text text-anchor="middle" dominant-baseline="middle" alignment-baseline="middle" dy="1em"><tspan dy="1em" x="0">Operadores</tspan></text></g></g><g transform="translate(108.32094847064718, 403.1102450818245)" class="mindmap-node section-3"><g><path d="M0 32.8 v-27.799999999999997 q0,-5 5,-5 h101.9296875 q5,0 5,5 v32.8 H0 Z" class="node-bkg node-no-border" id="node-15"></path><line y2="37.8" x2="111.9296875" y1="37.8" x1="0" class="node-line-3"></line></g><g transform="translate(55.96484375, 5)"><text text-anchor="middle" dominant-baseline="middle" alignment-baseline="middle" dy="1em"><tspan dy="1em" x="0">Matem치ticos</tspan></text></g></g><g transform="translate(248.1866715776912, 435.823414583709)" class="mindmap-node section-3"><g><path d="M0 32.8 v-27.799999999999997 q0,-5 5,-5 h62.7890625 q5,0 5,5 v32.8 H0 Z" class="node-bkg node-no-border" id="node-16"></path><line y2="37.8" x2="72.7890625" y1="37.8" x1="0" class="node-line-3"></line></g><g transform="translate(36.39453125, 5)"><text text-anchor="middle" dominant-baseline="middle" alignment-baseline="middle" dy="1em"><tspan dy="1em" x="0">L칩gicos</tspan></text></g></g><g transform="translate(64.81139710424986, 334.6796138976764)" class="mindmap-node section-3"><g><path d="M0 32.8 v-27.799999999999997 q0,-5 5,-5 h103.453125 q5,0 5,5 v32.8 H0 Z" class="node-bkg node-no-border" id="node-17"></path><line y2="37.8" x2="113.453125" y1="37.8" x1="0" class="node-line-3"></line></g><g transform="translate(56.7265625, 5)"><text text-anchor="middle" dominant-baseline="middle" alignment-baseline="middle" dy="1em"><tspan dy="1em" x="0">Comparaci칩n</tspan></text></g></g><g transform="translate(524.0293503823491, 210.80167963387328)" class="mindmap-node section-4"><g><path d="M0 32.8 v-27.799999999999997 q0,-5 5,-5 h164.0078125 q5,0 5,5 v32.8 H0 Z" class="node-bkg node-no-border" id="node-18"></path><line y2="37.8" x2="174.0078125" y1="37.8" x1="0" class="node-line-4"></line></g><g transform="translate(87.00390625, 5)"><text text-anchor="middle" dominant-baseline="middle" alignment-baseline="middle" dy="1em"><tspan dy="1em" x="0">Estruc.   Condicionales</tspan></text></g></g><g transform="translate(724.4393362035585, 162.97551083011467)" class="mindmap-node section-4"><g><path d="M0 32.8 v-27.799999999999997 q0,-5 5,-5 h54.21875 q5,0 5,5 v32.8 H0 Z" class="node-bkg node-no-border" id="node-19"></path><line y2="37.8" x2="64.21875" y1="37.8" x1="0" class="node-line-4"></line></g><g transform="translate(32.109375, 5)"><text text-anchor="middle" dominant-baseline="middle" alignment-baseline="middle" dy="1em"><tspan dy="1em" x="0">if   else</tspan></text></g></g><g transform="translate(727.0379856418162, 257.28392410456274)" class="mindmap-node section-4"><g><path d="M0 32.8 v-27.799999999999997 q0,-5 5,-5 h56.2109375 q5,0 5,5 v32.8 H0 Z" class="node-bkg node-no-border" id="node-20"></path><line y2="37.8" x2="66.2109375" y1="37.8" x1="0" class="node-line-4"></line></g><g transform="translate(33.10546875, 5)"><text text-anchor="middle" dominant-baseline="middle" alignment-baseline="middle" dy="1em"><tspan dy="1em" x="0">switch</tspan></text></g></g><g transform="translate(581.8450456326984, 118.20362457323063)" class="mindmap-node section-4"><g><path d="M0 32.8 v-27.799999999999997 q0,-5 5,-5 h90.75 q5,0 5,5 v32.8 H0 Z" class="node-bkg node-no-border" id="node-21"></path><line y2="37.8" x2="100.75" y1="37.8" x1="0" class="node-line-4"></line></g><g transform="translate(50.375, 5)"><text text-anchor="middle" dominant-baseline="middle" alignment-baseline="middle" dy="1em"><tspan dy="1em" x="0">ternary   op.</tspan></text></g></g><g transform="translate(328.2932071757002, 114.34520753406355)" class="mindmap-node section-5"><g><path d="M0 32.8 v-27.799999999999997 q0,-5 5,-5 h56.1640625 q5,0 5,5 v32.8 H0 Z" class="node-bkg node-no-border" id="node-22"></path><line y2="37.8" x2="66.1640625" y1="37.8" x1="0" class="node-line-5"></line></g><g transform="translate(33.08203125, 5)"><text text-anchor="middle" dominant-baseline="middle" alignment-baseline="middle" dy="1em"><tspan dy="1em" x="0">Bucles</tspan></text></g></g><g transform="translate(438.3064845882079, 39.222235609471454)" class="mindmap-node section-5"><g><path d="M0 32.8 v-27.799999999999997 q0,-5 5,-5 h31.5 q5,0 5,5 v32.8 H0 Z" class="node-bkg node-no-border" id="node-23"></path><line y2="37.8" x2="41.5" y1="37.8" x1="0" class="node-line-5"></line></g><g transform="translate(20.75, 5)"><text text-anchor="middle" dominant-baseline="middle" alignment-baseline="middle" dy="1em"><tspan dy="1em" x="0">for</tspan></text></g></g><g transform="translate(338.3508638114188, 15)" class="mindmap-node section-5"><g><path d="M0 32.8 v-27.799999999999997 q0,-5 5,-5 h65.671875 q5,0 5,5 v32.8 H0 Z" class="node-bkg node-no-border" id="node-24"></path><line y2="37.8" x2="75.671875" y1="37.8" x1="0" class="node-line-5"></line></g><g transform="translate(37.8359375, 5)"><text text-anchor="middle" dominant-baseline="middle" alignment-baseline="middle" dy="1em"><tspan dy="1em" x="0">for   ..   in</tspan></text></g></g><g transform="translate(180.57159004596247, 96.3003381131308)" class="mindmap-node section-5"><g><path d="M0 32.8 v-27.799999999999997 q0,-5 5,-5 h67.6953125 q5,0 5,5 v32.8 H0 Z" class="node-bkg node-no-border" id="node-25"></path><line y2="37.8" x2="77.6953125" y1="37.8" x1="0" class="node-line-5"></line></g><g transform="translate(38.84765625, 5)"><text text-anchor="middle" dominant-baseline="middle" alignment-baseline="middle" dy="1em"><tspan dy="1em" x="0">for   ..   of</tspan></text></g></g><g transform="translate(450.8579750432166, 104.06802843644118)" class="mindmap-node section-5"><g><path d="M0 32.8 v-27.799999999999997 q0,-5 5,-5 h49.9296875 q5,0 5,5 v32.8 H0 Z" class="node-bkg node-no-border" id="node-26"></path><line y2="37.8" x2="59.9296875" y1="37.8" x1="0" class="node-line-5"></line></g><g transform="translate(29.96484375, 5)"><text text-anchor="middle" dominant-baseline="middle" alignment-baseline="middle" dy="1em"><tspan dy="1em" x="0">while</tspan></text></g></g><g transform="translate(216.74688598462626, 35.513144874285786)" class="mindmap-node section-5"><g><path d="M0 32.8 v-27.799999999999997 q0,-5 5,-5 h87.8203125 q5,0 5,5 v32.8 H0 Z" class="node-bkg node-no-border" id="node-27"></path><line y2="37.8" x2="97.8203125" y1="37.8" x1="0" class="node-line-5"></line></g><g transform="translate(48.91015625, 5)"><text text-anchor="middle" dominant-baseline="middle" alignment-baseline="middle" dy="1em"><tspan dy="1em" x="0">do   ..   while</tspan></text></g></g><g transform="translate(452.82927078127864, 172.7441221119692)" class="mindmap-node section-6"><g><path d="M0 32.8 v-27.799999999999997 q0,-5 5,-5 h65.8046875 q5,0 5,5 v32.8 H0 Z" class="node-bkg node-no-border" id="node-28"></path><line y2="37.8" x2="75.8046875" y1="37.8" x1="0" class="node-line-6"></line></g><g transform="translate(37.90234375, 5)"><text text-anchor="middle" dominant-baseline="middle" alignment-baseline="middle" dy="1em"><tspan dy="1em" x="0">Eventos</tspan></text></g></g></g></svg>