<svg width="65" height="30" viewBox="0 0 65 30" fill="none" xmlns="http://www.w3.org/2000/svg">
<path d="M60.824 6.42028C60.824 5.22131 61.7731 4.22217 62.912 4.22217C64.0644 4.22217 65.0135 5.20704 64.9999 6.42028C64.9999 7.61925 64.0509 8.61839 62.912 8.61839C61.7731 8.61839 60.824 7.61925 60.824 6.42028Z" fill="black"/>
<path d="M56.5804 16.0549C55.4822 14.8987 54.4382 14.3849 53.1637 14.3849C50.7233 14.3849 48.7981 16.5116 48.8116 19.2236V19.2664C48.8116 21.9641 50.7911 24.1622 53.218 24.1622C54.3704 24.1622 55.3602 23.7197 56.3499 22.7491L59.0615 25.5039C57.3803 27.2452 55.4686 28.1017 53.1773 28.1017C48.6625 28.1017 44.9882 24.1479 44.9882 19.3092V19.2664C44.9882 14.4134 48.6625 10.4739 53.2044 10.4739C56.0923 10.4739 57.9226 11.8299 59.1971 13.1574L56.5804 16.0549Z" fill="black"/>
<path fill-rule="evenodd" clip-rule="evenodd" d="M42.9681 11.7586C42.9681 13.2573 42.4665 14.7702 41.3818 15.9264C42.941 17.0683 43.6324 19.0095 43.6189 20.9935C43.6189 24.7617 41.6937 27.7448 36.1077 27.7448H28.5559V5.37832H35.9722C41.2055 5.37832 42.9681 8.26156 42.9681 11.7586ZM36.0535 9.34634H32.3657V14.2136H36.284C38.3448 14.2136 38.8329 12.9432 38.8329 11.7586C38.8329 10.531 38.4262 9.34634 36.0535 9.34634ZM32.3793 23.7911H36.2298C38.9549 23.7911 39.5108 22.4066 39.5379 21.0078C39.5379 19.0808 38.6566 18.1816 36.2975 18.1816H32.3793V23.7911Z" fill="black"/>
<path d="M61.0274 10.4454H64.8372V27.7591H61.0274V10.4454Z" fill="black"/>
<path d="M0.00407269 26.972C0.0520179 28.4573 1.10681 29.7233 2.5132 29.9596C2.70499 29.9933 2.89677 30.0102 3.08855 29.9933C3.88763 29.9596 4.62279 29.6051 5.15019 28.9975C5.69357 28.3898 5.96526 27.5796 5.93329 26.7525C5.93329 24.4907 7.16389 22.9547 8.84197 21.2162C10.6 19.8489 13.1091 18.1779 16.6411 16.1018C21.036 13.6374 23.8968 10.7173 24.52 8.33732L24.536 8.2698C24.6159 7.96597 24.6479 7.66215 24.6319 7.35832C24.584 5.87295 23.5292 4.60701 22.1228 4.3707C21.931 4.33694 21.7392 4.32006 21.5474 4.33694C20.7484 4.3707 20.0132 4.72517 19.4858 5.33282C18.9424 5.94047 18.6707 6.75067 18.7027 7.57775C18.7027 9.95772 17.3442 11.5444 15.5064 13.3842C11.5908 16.6081 7.97896 18.2285 7.97896 18.2285C3.58398 20.6929 0.723251 23.613 0.0999631 25.993L0.0839813 26.0605C0.0200544 26.3812 -0.011909 26.685 0.00407269 26.972Z" fill="#EF3942"/>
<path d="M17.7118 17.4521C17.7118 17.4521 20.9081 18.3467 19.9013 23.0898C19.8533 23.3429 19.8214 23.5961 19.8533 23.8662C19.9652 25.2672 21.1319 26.2968 22.4584 26.1787C23.7848 26.0605 24.7597 24.8283 24.6479 23.4273C24.4241 20.1359 18.5428 16.1018 17.7437 16.203C17.7437 16.203 17.2803 16.2199 17.2803 16.8445C17.2803 17.3508 17.7118 17.4521 17.7118 17.4521Z" fill="#0C9647"/>
<path d="M17.179 18.798C17.179 18.798 19.2726 19.3888 18.6173 22.4777C18.6173 22.4777 17.9301 25.3978 13.5032 26.1573C8.50089 27.035 8.5808 25.0939 8.5808 25.0939C8.53286 24.1318 8.19724 22.9672 13.1676 19.7939C13.1676 19.7939 15.6767 18.1735 17.179 18.798Z" fill="#FDD700"/>
<path d="M4.65471 4.65769C4.94238 8.87749 10.6638 13.9244 14.0839 15.8824C15.0109 16.4225 16.1616 16.3043 16.4972 16.1693C18.0634 15.4097 16.3853 14.7683 16.3853 14.7683C16.3853 14.7683 10.9995 13.2492 12.6775 5.24846C12.7734 4.82648 12.8054 4.38762 12.7734 3.93188C12.5816 1.56879 10.6159 -0.186643 8.37845 0.0159072C6.12503 0.218458 4.46293 2.2946 4.65471 4.65769Z" fill="#2C70B8"/>
</svg>
