<svg aria-roledescription="timeline" role="graphics-document document" viewBox="0 -61 1990 664.4156494140625" style="max-width: 100%;" xmlns="http://www.w3.org/2000/svg" width="100%" id="graph-div" height="100%" xmlns:xlink="http://www.w3.org/1999/xlink"><style>@import url("https://cdnjs.cloudflare.com/ajax/libs/font-awesome/6.2.1/css/all.min.css");'</style><style>#graph-div{font-family:"trebuchet ms",verdana,arial,sans-serif;font-size:16px;fill:#333;}#graph-div .error-icon{fill:#552222;}#graph-div .error-text{fill:#552222;stroke:#552222;}#graph-div .edge-thickness-normal{stroke-width:2px;}#graph-div .edge-thickness-thick{stroke-width:3.5px;}#graph-div .edge-pattern-solid{stroke-dasharray:0;}#graph-div .edge-pattern-dashed{stroke-dasharray:3;}#graph-div .edge-pattern-dotted{stroke-dasharray:2;}#graph-div .marker{fill:#333333;stroke:#333333;}#graph-div .marker.cross{stroke:#333333;}#graph-div svg{font-family:"trebuchet ms",verdana,arial,sans-serif;font-size:16px;}#graph-div .edge{stroke-width:3;}#graph-div .section--1 rect,#graph-div .section--1 path,#graph-div .section--1 circle,#graph-div .section--1 path{fill:hsl(240, 100%, 76.2745098039%);}#graph-div .section--1 text{fill:#ffffff;}#graph-div .node-icon--1{font-size:40px;color:#ffffff;}#graph-div .section-edge--1{stroke:hsl(240, 100%, 76.2745098039%);}#graph-div .edge-depth--1{stroke-width:17;}#graph-div .section--1 line{stroke:hsl(60, 100%, 86.2745098039%);stroke-width:3;}#graph-div .lineWrapper line{stroke:#ffffff;}#graph-div .disabled,#graph-div .disabled circle,#graph-div .disabled text{fill:lightgray;}#graph-div .disabled text{fill:#efefef;}#graph-div .section-0 rect,#graph-div .section-0 path,#graph-div .section-0 circle,#graph-div .section-0 path{fill:hsl(60, 100%, 73.5294117647%);}#graph-div .section-0 text{fill:black;}#graph-div .node-icon-0{font-size:40px;color:black;}#graph-div .section-edge-0{stroke:hsl(60, 100%, 73.5294117647%);}#graph-div .edge-depth-0{stroke-width:14;}#graph-div .section-0 line{stroke:hsl(240, 100%, 83.5294117647%);stroke-width:3;}#graph-div .lineWrapper line{stroke:black;}#graph-div .disabled,#graph-div .disabled circle,#graph-div .disabled text{fill:lightgray;}#graph-div .disabled text{fill:#efefef;}#graph-div .section-1 rect,#graph-div .section-1 path,#graph-div .section-1 circle,#graph-div .section-1 path{fill:hsl(80, 100%, 76.2745098039%);}#graph-div .section-1 text{fill:black;}#graph-div .node-icon-1{font-size:40px;color:black;}#graph-div .section-edge-1{stroke:hsl(80, 100%, 76.2745098039%);}#graph-div .edge-depth-1{stroke-width:11;}#graph-div .section-1 line{stroke:hsl(260, 100%, 86.2745098039%);stroke-width:3;}#graph-div .lineWrapper line{stroke:black;}#graph-div .disabled,#graph-div .disabled circle,#graph-div .disabled text{fill:lightgray;}#graph-div .disabled text{fill:#efefef;}#graph-div .section-2 rect,#graph-div .section-2 path,#graph-div .section-2 circle,#graph-div .section-2 path{fill:hsl(270, 100%, 76.2745098039%);}#graph-div .section-2 text{fill:#ffffff;}#graph-div .node-icon-2{font-size:40px;color:#ffffff;}#graph-div .section-edge-2{stroke:hsl(270, 100%, 76.2745098039%);}#graph-div .edge-depth-2{stroke-width:8;}#graph-div .section-2 line{stroke:hsl(90, 100%, 86.2745098039%);stroke-width:3;}#graph-div .lineWrapper line{stroke:#ffffff;}#graph-div .disabled,#graph-div .disabled circle,#graph-div .disabled text{fill:lightgray;}#graph-div .disabled text{fill:#efefef;}#graph-div .section-3 rect,#graph-div .section-3 path,#graph-div .section-3 circle,#graph-div .section-3 path{fill:hsl(300, 100%, 76.2745098039%);}#graph-div .section-3 text{fill:black;}#graph-div .node-icon-3{font-size:40px;color:black;}#graph-div .section-edge-3{stroke:hsl(300, 100%, 76.2745098039%);}#graph-div .edge-depth-3{stroke-width:5;}#graph-div .section-3 line{stroke:hsl(120, 100%, 86.2745098039%);stroke-width:3;}#graph-div .lineWrapper line{stroke:black;}#graph-div .disabled,#graph-div .disabled circle,#graph-div .disabled text{fill:lightgray;}#graph-div .disabled text{fill:#efefef;}#graph-div .section-4 rect,#graph-div .section-4 path,#graph-div .section-4 circle,#graph-div .section-4 path{fill:hsl(330, 100%, 76.2745098039%);}#graph-div .section-4 text{fill:black;}#graph-div .node-icon-4{font-size:40px;color:black;}#graph-div .section-edge-4{stroke:hsl(330, 100%, 76.2745098039%);}#graph-div .edge-depth-4{stroke-width:2;}#graph-div .section-4 line{stroke:hsl(150, 100%, 86.2745098039%);stroke-width:3;}#graph-div .lineWrapper line{stroke:black;}#graph-div .disabled,#graph-div .disabled circle,#graph-div .disabled text{fill:lightgray;}#graph-div .disabled text{fill:#efefef;}#graph-div .section-5 rect,#graph-div .section-5 path,#graph-div .section-5 circle,#graph-div .section-5 path{fill:hsl(0, 100%, 76.2745098039%);}#graph-div .section-5 text{fill:black;}#graph-div .node-icon-5{font-size:40px;color:black;}#graph-div .section-edge-5{stroke:hsl(0, 100%, 76.2745098039%);}#graph-div .edge-depth-5{stroke-width:-1;}#graph-div .section-5 line{stroke:hsl(180, 100%, 86.2745098039%);stroke-width:3;}#graph-div .lineWrapper line{stroke:black;}#graph-div .disabled,#graph-div .disabled circle,#graph-div .disabled text{fill:lightgray;}#graph-div .disabled text{fill:#efefef;}#graph-div .section-6 rect,#graph-div .section-6 path,#graph-div .section-6 circle,#graph-div .section-6 path{fill:hsl(30, 100%, 76.2745098039%);}#graph-div .section-6 text{fill:black;}#graph-div .node-icon-6{font-size:40px;color:black;}#graph-div .section-edge-6{stroke:hsl(30, 100%, 76.2745098039%);}#graph-div .edge-depth-6{stroke-width:-4;}#graph-div .section-6 line{stroke:hsl(210, 100%, 86.2745098039%);stroke-width:3;}#graph-div .lineWrapper line{stroke:black;}#graph-div .disabled,#graph-div .disabled circle,#graph-div .disabled text{fill:lightgray;}#graph-div .disabled text{fill:#efefef;}#graph-div .section-7 rect,#graph-div .section-7 path,#graph-div .section-7 circle,#graph-div .section-7 path{fill:hsl(90, 100%, 76.2745098039%);}#graph-div .section-7 text{fill:black;}#graph-div .node-icon-7{font-size:40px;color:black;}#graph-div .section-edge-7{stroke:hsl(90, 100%, 76.2745098039%);}#graph-div .edge-depth-7{stroke-width:-7;}#graph-div .section-7 line{stroke:hsl(270, 100%, 86.2745098039%);stroke-width:3;}#graph-div .lineWrapper line{stroke:black;}#graph-div .disabled,#graph-div .disabled circle,#graph-div .disabled text{fill:lightgray;}#graph-div .disabled text{fill:#efefef;}#graph-div .section-8 rect,#graph-div .section-8 path,#graph-div .section-8 circle,#graph-div .section-8 path{fill:hsl(150, 100%, 76.2745098039%);}#graph-div .section-8 text{fill:black;}#graph-div .node-icon-8{font-size:40px;color:black;}#graph-div .section-edge-8{stroke:hsl(150, 100%, 76.2745098039%);}#graph-div .edge-depth-8{stroke-width:-10;}#graph-div .section-8 line{stroke:hsl(330, 100%, 86.2745098039%);stroke-width:3;}#graph-div .lineWrapper line{stroke:black;}#graph-div .disabled,#graph-div .disabled circle,#graph-div .disabled text{fill:lightgray;}#graph-div .disabled text{fill:#efefef;}#graph-div .section-9 rect,#graph-div .section-9 path,#graph-div .section-9 circle,#graph-div .section-9 path{fill:hsl(180, 100%, 76.2745098039%);}#graph-div .section-9 text{fill:black;}#graph-div .node-icon-9{font-size:40px;color:black;}#graph-div .section-edge-9{stroke:hsl(180, 100%, 76.2745098039%);}#graph-div .edge-depth-9{stroke-width:-13;}#graph-div .section-9 line{stroke:hsl(0, 100%, 86.2745098039%);stroke-width:3;}#graph-div .lineWrapper line{stroke:black;}#graph-div .disabled,#graph-div .disabled circle,#graph-div .disabled text{fill:lightgray;}#graph-div .disabled text{fill:#efefef;}#graph-div .section-10 rect,#graph-div .section-10 path,#graph-div .section-10 circle,#graph-div .section-10 path{fill:hsl(210, 100%, 76.2745098039%);}#graph-div .section-10 text{fill:black;}#graph-div .node-icon-10{font-size:40px;color:black;}#graph-div .section-edge-10{stroke:hsl(210, 100%, 76.2745098039%);}#graph-div .edge-depth-10{stroke-width:-16;}#graph-div .section-10 line{stroke:hsl(30, 100%, 86.2745098039%);stroke-width:3;}#graph-div .lineWrapper line{stroke:black;}#graph-div .disabled,#graph-div .disabled circle,#graph-div .disabled text{fill:lightgray;}#graph-div .disabled text{fill:#efefef;}#graph-div .section-root rect,#graph-div .section-root path,#graph-div .section-root circle{fill:hsl(240, 100%, 46.2745098039%);}#graph-div .section-root text{fill:#ffffff;}#graph-div .icon-container{height:100%;display:flex;justify-content:center;align-items:center;}#graph-div .edge{fill:none;}#graph-div .eventWrapper{filter:brightness(120%);}#graph-div :root{--mermaid-font-family:"trebuchet ms",verdana,arial,sans-serif;}</style><g></g><g></g><defs><marker orient="auto" markerHeight="4" markerWidth="6" refY="2" refX="5" id="arrowhead"><path d="M 0,0 V 4 L6,2 Z"></path></marker></defs><g transform="translate(100, 50)" class="taskWrapper"><g class="timeline-node section--1"><g><path d="M0 60.815625 v-55.815625 q0,-5 5,-5 h180 q5,0 5,5 v60.815625 H0 Z" class="node-bkg node-undefined" id="node-undefined"></path><line y2="65.815625" x2="190" y1="65.815625" x1="0" class="node-line--1"></line></g><g transform="translate(95, 10)"><text text-anchor="middle" dominant-baseline="middle" alignment-baseline="middle" dy="1em"><tspan dy="1em" x="0">Sem   01</tspan></text></g></g></g><g class="lineWrapper"><line stroke-dasharray="5,5" marker-end="url(#arrowhead)" stroke="black" stroke-width="2" y2="548.3093734741211" x2="195" y1="115.815625" x1="195"></line></g><g transform="translate(100, 250)" class="eventWrapper"><g class="timeline-node section--1"><g><path d="M0 45 v-40 q0,-5 5,-5 h180 q5,0 5,5 v45 H0 Z" class="node-bkg node-undefined" id="node-undefined"></path><line y2="50" x2="190" y1="50" x1="0" class="node-line--1"></line></g><g transform="translate(95, 10)"><text text-anchor="middle" dominant-baseline="middle" alignment-baseline="middle" dy="1em"><tspan dy="1em" x="0">Herramientas   Curso</tspan></text></g></g></g><g transform="translate(100, 310)" class="eventWrapper"><g class="timeline-node section--1"><g><path d="M0 45 v-40 q0,-5 5,-5 h180 q5,0 5,5 v45 H0 Z" class="node-bkg node-undefined" id="node-undefined"></path><line y2="50" x2="190" y1="50" x1="0" class="node-line--1"></line></g><g transform="translate(95, 10)"><text text-anchor="middle" dominant-baseline="middle" alignment-baseline="middle" dy="1em"><tspan dy="1em" x="0">HTML</tspan></text></g></g></g><g transform="translate(100, 370)" class="eventWrapper"><g class="timeline-node section--1"><g><path d="M0 45 v-40 q0,-5 5,-5 h180 q5,0 5,5 v45 H0 Z" class="node-bkg node-undefined" id="node-undefined"></path><line y2="50" x2="190" y1="50" x1="0" class="node-line--1"></line></g><g transform="translate(95, 10)"><text text-anchor="middle" dominant-baseline="middle" alignment-baseline="middle" dy="1em"><tspan dy="1em" x="0">GIT</tspan></text></g></g></g><g transform="translate(100, 430)" class="eventWrapper"><g class="timeline-node section--1"><g><path d="M0 45 v-40 q0,-5 5,-5 h180 q5,0 5,5 v45 H0 Z" class="node-bkg node-undefined" id="node-undefined"></path><line y2="50" x2="190" y1="50" x1="0" class="node-line--1"></line></g><g transform="translate(95, 10)"><text text-anchor="middle" dominant-baseline="middle" alignment-baseline="middle" dy="1em"><tspan dy="1em" x="0">Github</tspan></text></g></g></g><g transform="translate(100, 490)" class="eventWrapper"><g class="timeline-node section--1"><g><path d="M0 45 v-40 q0,-5 5,-5 h180 q5,0 5,5 v45 H0 Z" class="node-bkg node-undefined" id="node-undefined"></path><line y2="50" x2="190" y1="50" x1="0" class="node-line--1"></line></g><g transform="translate(95, 10)"><text text-anchor="middle" dominant-baseline="middle" alignment-baseline="middle" dy="1em"><tspan dy="1em" x="0">Github   Pages</tspan></text></g></g></g><g transform="translate(300, 50)" class="taskWrapper"><g class="timeline-node section-0"><g><path d="M0 60.815625 v-55.815625 q0,-5 5,-5 h180 q5,0 5,5 v60.815625 H0 Z" class="node-bkg node-undefined" id="node-undefined"></path><line y2="65.815625" x2="190" y1="65.815625" x1="0" class="node-line-0"></line></g><g transform="translate(95, 10)"><text text-anchor="middle" dominant-baseline="middle" alignment-baseline="middle" dy="1em"><tspan dy="1em" x="0">Sem   02</tspan></text></g></g></g><g class="lineWrapper"><line stroke-dasharray="5,5" marker-end="url(#arrowhead)" stroke="black" stroke-width="2" y2="548.3093734741211" x2="395" y1="115.815625" x1="395"></line></g><g transform="translate(300, 250)" class="eventWrapper"><g class="timeline-node section-0"><g><path d="M0 45 v-40 q0,-5 5,-5 h180 q5,0 5,5 v45 H0 Z" class="node-bkg node-undefined" id="node-undefined"></path><line y2="50" x2="190" y1="50" x1="0" class="node-line-0"></line></g><g transform="translate(95, 10)"><text text-anchor="middle" dominant-baseline="middle" alignment-baseline="middle" dy="1em"><tspan dy="1em" x="0">Fundamentos   CSS</tspan></text></g></g></g><g transform="translate(300, 310)" class="eventWrapper"><g class="timeline-node section-0"><g><path d="M0 45 v-40 q0,-5 5,-5 h180 q5,0 5,5 v45 H0 Z" class="node-bkg node-undefined" id="node-undefined"></path><line y2="50" x2="190" y1="50" x1="0" class="node-line-0"></line></g><g transform="translate(95, 10)"><text text-anchor="middle" dominant-baseline="middle" alignment-baseline="middle" dy="1em"><tspan dy="1em" x="0">Modelo   de   Cajas</tspan></text></g></g></g><g transform="translate(300, 370)" class="eventWrapper"><g class="timeline-node section-0"><g><path d="M0 45 v-40 q0,-5 5,-5 h180 q5,0 5,5 v45 H0 Z" class="node-bkg node-undefined" id="node-undefined"></path><line y2="50" x2="190" y1="50" x1="0" class="node-line-0"></line></g><g transform="translate(95, 10)"><text text-anchor="middle" dominant-baseline="middle" alignment-baseline="middle" dy="1em"><tspan dy="1em" x="0">Flexbox</tspan></text></g></g></g><g transform="translate(500, 50)" class="taskWrapper"><g class="timeline-node section-1"><g><path d="M0 60.815625 v-55.815625 q0,-5 5,-5 h180 q5,0 5,5 v60.815625 H0 Z" class="node-bkg node-undefined" id="node-undefined"></path><line y2="65.815625" x2="190" y1="65.815625" x1="0" class="node-line-1"></line></g><g transform="translate(95, 10)"><text text-anchor="middle" dominant-baseline="middle" alignment-baseline="middle" dy="1em"><tspan dy="1em" x="0">Sem   03</tspan></text></g></g></g><g class="lineWrapper"><line stroke-dasharray="5,5" marker-end="url(#arrowhead)" stroke="black" stroke-width="2" y2="548.3093734741211" x2="595" y1="115.815625" x1="595"></line></g><g transform="translate(500, 250)" class="eventWrapper"><g class="timeline-node section-1"><g><path d="M0 45 v-40 q0,-5 5,-5 h180 q5,0 5,5 v45 H0 Z" class="node-bkg node-undefined" id="node-undefined"></path><line y2="50" x2="190" y1="50" x1="0" class="node-line-1"></line></g><g transform="translate(95, 10)"><text text-anchor="middle" dominant-baseline="middle" alignment-baseline="middle" dy="1em"><tspan dy="1em" x="0">SCRUM</tspan></text></g></g></g><g transform="translate(500, 310)" class="eventWrapper"><g class="timeline-node section-1"><g><path d="M0 58.41562347412109 v-53.41562347412109 q0,-5 5,-5 h180 q5,0 5,5 v58.41562347412109 H0 Z" class="node-bkg node-undefined" id="node-undefined"></path><line y2="63.41562347412109" x2="190" y1="63.41562347412109" x1="0" class="node-line-1"></line></g><g transform="translate(95, 10)"><text text-anchor="middle" dominant-baseline="middle" alignment-baseline="middle" dy="1em"><tspan dy="1em" x="0">Historias   de</tspan><tspan dy="1.1em" x="0">Usuarios</tspan></text></g></g></g><g transform="translate(500, 383.4156234741211)" class="eventWrapper"><g class="timeline-node section-1"><g><path d="M0 45 v-40 q0,-5 5,-5 h180 q5,0 5,5 v45 H0 Z" class="node-bkg node-undefined" id="node-undefined"></path><line y2="50" x2="190" y1="50" x1="0" class="node-line-1"></line></g><g transform="translate(95, 10)"><text text-anchor="middle" dominant-baseline="middle" alignment-baseline="middle" dy="1em"><tspan dy="1em" x="0">Github   Projects</tspan></text></g></g></g><g transform="translate(500, 443.4156234741211)" class="eventWrapper"><g class="timeline-node section-1"><g><path d="M0 45 v-40 q0,-5 5,-5 h180 q5,0 5,5 v45 H0 Z" class="node-bkg node-undefined" id="node-undefined"></path><line y2="50" x2="190" y1="50" x1="0" class="node-line-1"></line></g><g transform="translate(95, 10)"><text text-anchor="middle" dominant-baseline="middle" alignment-baseline="middle" dy="1em"><tspan dy="1em" x="0">Trabajo   Colaborativo</tspan></text></g></g></g><g transform="translate(700, 50)" class="taskWrapper"><g class="timeline-node section-2"><g><path d="M0 60.815625 v-55.815625 q0,-5 5,-5 h180 q5,0 5,5 v60.815625 H0 Z" class="node-bkg node-undefined" id="node-undefined"></path><line y2="65.815625" x2="190" y1="65.815625" x1="0" class="node-line-2"></line></g><g transform="translate(95, 10)"><text text-anchor="middle" dominant-baseline="middle" alignment-baseline="middle" dy="1em"><tspan dy="1em" x="0">Sem   04</tspan></text></g></g></g><g class="lineWrapper"><line stroke-dasharray="5,5" marker-end="url(#arrowhead)" stroke="black" stroke-width="2" y2="548.3093734741211" x2="795" y1="115.815625" x1="795"></line></g><g transform="translate(700, 250)" class="eventWrapper"><g class="timeline-node section-2"><g><path d="M0 45 v-40 q0,-5 5,-5 h180 q5,0 5,5 v45 H0 Z" class="node-bkg node-undefined" id="node-undefined"></path><line y2="50" x2="190" y1="50" x1="0" class="node-line-2"></line></g><g transform="translate(95, 10)"><text text-anchor="middle" dominant-baseline="middle" alignment-baseline="middle" dy="1em"><tspan dy="1em" x="0">CSS   Grid</tspan></text></g></g></g><g transform="translate(700, 310)" class="eventWrapper"><g class="timeline-node section-2"><g><path d="M0 45 v-40 q0,-5 5,-5 h180 q5,0 5,5 v45 H0 Z" class="node-bkg node-undefined" id="node-undefined"></path><line y2="50" x2="190" y1="50" x1="0" class="node-line-2"></line></g><g transform="translate(95, 10)"><text text-anchor="middle" dominant-baseline="middle" alignment-baseline="middle" dy="1em"><tspan dy="1em" x="0">Responsividad</tspan></text></g></g></g><g transform="translate(700, 370)" class="eventWrapper"><g class="timeline-node section-2"><g><path d="M0 45 v-40 q0,-5 5,-5 h180 q5,0 5,5 v45 H0 Z" class="node-bkg node-undefined" id="node-undefined"></path><line y2="50" x2="190" y1="50" x1="0" class="node-line-2"></line></g><g transform="translate(95, 10)"><text text-anchor="middle" dominant-baseline="middle" alignment-baseline="middle" dy="1em"><tspan dy="1em" x="0">Unidades   CSS</tspan></text></g></g></g><g transform="translate(700, 430)" class="eventWrapper"><g class="timeline-node section-2"><g><path d="M0 45 v-40 q0,-5 5,-5 h180 q5,0 5,5 v45 H0 Z" class="node-bkg node-undefined" id="node-undefined"></path><line y2="50" x2="190" y1="50" x1="0" class="node-line-2"></line></g><g transform="translate(95, 10)"><text text-anchor="middle" dominant-baseline="middle" alignment-baseline="middle" dy="1em"><tspan dy="1em" x="0">Accesibilidad</tspan></text></g></g></g><g transform="translate(900, 50)" class="taskWrapper"><g class="timeline-node section-3"><g><path d="M0 60.815625 v-55.815625 q0,-5 5,-5 h180 q5,0 5,5 v60.815625 H0 Z" class="node-bkg node-undefined" id="node-undefined"></path><line y2="65.815625" x2="190" y1="65.815625" x1="0" class="node-line-3"></line></g><g transform="translate(95, 10)"><text text-anchor="middle" dominant-baseline="middle" alignment-baseline="middle" dy="1em"><tspan dy="1em" x="0">Sem   05</tspan></text></g></g></g><g class="lineWrapper"><line stroke-dasharray="5,5" marker-end="url(#arrowhead)" stroke="black" stroke-width="2" y2="548.3093734741211" x2="995" y1="115.815625" x1="995"></line></g><g transform="translate(900, 250)" class="eventWrapper"><g class="timeline-node section-3"><g><path d="M0 58.41562347412109 v-53.41562347412109 q0,-5 5,-5 h180 q5,0 5,5 v58.41562347412109 H0 Z" class="node-bkg node-undefined" id="node-undefined"></path><line y2="63.41562347412109" x2="190" y1="63.41562347412109" x1="0" class="node-line-3"></line></g><g transform="translate(95, 10)"><text text-anchor="middle" dominant-baseline="middle" alignment-baseline="middle" dy="1em"><tspan dy="1em" x="0">Fundamentos</tspan><tspan dy="1.1em" x="0">Javascript</tspan></text></g></g></g><g transform="translate(900, 323.4156234741211)" class="eventWrapper"><g class="timeline-node section-3"><g><path d="M0 45 v-40 q0,-5 5,-5 h180 q5,0 5,5 v45 H0 Z" class="node-bkg node-undefined" id="node-undefined"></path><line y2="50" x2="190" y1="50" x1="0" class="node-line-3"></line></g><g transform="translate(95, 10)"><text text-anchor="middle" dominant-baseline="middle" alignment-baseline="middle" dy="1em"><tspan dy="1em" x="0">DOM</tspan></text></g></g></g><g transform="translate(900, 383.4156234741211)" class="eventWrapper"><g class="timeline-node section-3"><g><path d="M0 45 v-40 q0,-5 5,-5 h180 q5,0 5,5 v45 H0 Z" class="node-bkg node-undefined" id="node-undefined"></path><line y2="50" x2="190" y1="50" x1="0" class="node-line-3"></line></g><g transform="translate(95, 10)"><text text-anchor="middle" dominant-baseline="middle" alignment-baseline="middle" dy="1em"><tspan dy="1em" x="0">Eventos</tspan></text></g></g></g><g transform="translate(900, 443.4156234741211)" class="eventWrapper"><g class="timeline-node section-3"><g><path d="M0 58.41562347412109 v-53.41562347412109 q0,-5 5,-5 h180 q5,0 5,5 v58.41562347412109 H0 Z" class="node-bkg node-undefined" id="node-undefined"></path><line y2="63.41562347412109" x2="190" y1="63.41562347412109" x1="0" class="node-line-3"></line></g><g transform="translate(95, 10)"><text text-anchor="middle" dominant-baseline="middle" alignment-baseline="middle" dy="1em"><tspan dy="1em" x="0">Validación   de</tspan><tspan dy="1.1em" x="0">Formularios</tspan></text></g></g></g><g transform="translate(1100, 50)" class="taskWrapper"><g class="timeline-node section-4"><g><path d="M0 60.815625 v-55.815625 q0,-5 5,-5 h180 q5,0 5,5 v60.815625 H0 Z" class="node-bkg node-undefined" id="node-undefined"></path><line y2="65.815625" x2="190" y1="65.815625" x1="0" class="node-line-4"></line></g><g transform="translate(95, 10)"><text text-anchor="middle" dominant-baseline="middle" alignment-baseline="middle" dy="1em"><tspan dy="1em" x="0">Sem   06</tspan></text></g></g></g><g class="lineWrapper"><line stroke-dasharray="5,5" marker-end="url(#arrowhead)" stroke="black" stroke-width="2" y2="548.3093734741211" x2="1195" y1="115.815625" x1="1195"></line></g><g transform="translate(1100, 250)" class="eventWrapper"><g class="timeline-node section-4"><g><path d="M0 45 v-40 q0,-5 5,-5 h180 q5,0 5,5 v45 H0 Z" class="node-bkg node-undefined" id="node-undefined"></path><line y2="50" x2="190" y1="50" x1="0" class="node-line-4"></line></g><g transform="translate(95, 10)"><text text-anchor="middle" dominant-baseline="middle" alignment-baseline="middle" dy="1em"><tspan dy="1em" x="0">Fundamentos   React</tspan></text></g></g></g><g transform="translate(1100, 310)" class="eventWrapper"><g class="timeline-node section-4"><g><path d="M0 58.41562347412109 v-53.41562347412109 q0,-5 5,-5 h180 q5,0 5,5 v58.41562347412109 H0 Z" class="node-bkg node-undefined" id="node-undefined"></path><line y2="63.41562347412109" x2="190" y1="63.41562347412109" x1="0" class="node-line-4"></line></g><g transform="translate(95, 10)"><text text-anchor="middle" dominant-baseline="middle" alignment-baseline="middle" dy="1em"><tspan dy="1em" x="0">Despliegue   App</tspan><tspan dy="1.1em" x="0">React</tspan></text></g></g></g><g transform="translate(1100, 383.4156234741211)" class="eventWrapper"><g class="timeline-node section-4"><g><path d="M0 45 v-40 q0,-5 5,-5 h180 q5,0 5,5 v45 H0 Z" class="node-bkg node-undefined" id="node-undefined"></path><line y2="50" x2="190" y1="50" x1="0" class="node-line-4"></line></g><g transform="translate(95, 10)"><text text-anchor="middle" dominant-baseline="middle" alignment-baseline="middle" dy="1em"><tspan dy="1em" x="0">Props</tspan></text></g></g></g><g transform="translate(1100, 443.4156234741211)" class="eventWrapper"><g class="timeline-node section-4"><g><path d="M0 45 v-40 q0,-5 5,-5 h180 q5,0 5,5 v45 H0 Z" class="node-bkg node-undefined" id="node-undefined"></path><line y2="50" x2="190" y1="50" x1="0" class="node-line-4"></line></g><g transform="translate(95, 10)"><text text-anchor="middle" dominant-baseline="middle" alignment-baseline="middle" dy="1em"><tspan dy="1em" x="0">Eventos</tspan></text></g></g></g><g transform="translate(1100, 503.4156234741211)" class="eventWrapper"><g class="timeline-node section-4"><g><path d="M0 45 v-40 q0,-5 5,-5 h180 q5,0 5,5 v45 H0 Z" class="node-bkg node-undefined" id="node-undefined"></path><line y2="50" x2="190" y1="50" x1="0" class="node-line-4"></line></g><g transform="translate(95, 10)"><text text-anchor="middle" dominant-baseline="middle" alignment-baseline="middle" dy="1em"><tspan dy="1em" x="0">Estados</tspan></text></g></g></g><g transform="translate(1300, 50)" class="taskWrapper"><g class="timeline-node section-5"><g><path d="M0 60.815625 v-55.815625 q0,-5 5,-5 h180 q5,0 5,5 v60.815625 H0 Z" class="node-bkg node-undefined" id="node-undefined"></path><line y2="65.815625" x2="190" y1="65.815625" x1="0" class="node-line-5"></line></g><g transform="translate(95, 10)"><text text-anchor="middle" dominant-baseline="middle" alignment-baseline="middle" dy="1em"><tspan dy="1em" x="0">Sem   07</tspan></text></g></g></g><g class="lineWrapper"><line stroke-dasharray="5,5" marker-end="url(#arrowhead)" stroke="black" stroke-width="2" y2="548.3093734741211" x2="1395" y1="115.815625" x1="1395"></line></g><g transform="translate(1300, 250)" class="eventWrapper"><g class="timeline-node section-5"><g><path d="M0 45 v-40 q0,-5 5,-5 h180 q5,0 5,5 v45 H0 Z" class="node-bkg node-undefined" id="node-undefined"></path><line y2="50" x2="190" y1="50" x1="0" class="node-line-5"></line></g><g transform="translate(95, 10)"><text text-anchor="middle" dominant-baseline="middle" alignment-baseline="middle" dy="1em"><tspan dy="1em" x="0">Trabajo   con   APIs</tspan></text></g></g></g><g transform="translate(1300, 310)" class="eventWrapper"><g class="timeline-node section-5"><g><path d="M0 45 v-40 q0,-5 5,-5 h180 q5,0 5,5 v45 H0 Z" class="node-bkg node-undefined" id="node-undefined"></path><line y2="50" x2="190" y1="50" x1="0" class="node-line-5"></line></g><g transform="translate(95, 10)"><text text-anchor="middle" dominant-baseline="middle" alignment-baseline="middle" dy="1em"><tspan dy="1em" x="0">React   Context   API</tspan></text></g></g></g><g transform="translate(1500, 50)" class="taskWrapper"><g class="timeline-node section-6"><g><path d="M0 60.815625 v-55.815625 q0,-5 5,-5 h180 q5,0 5,5 v60.815625 H0 Z" class="node-bkg node-undefined" id="node-undefined"></path><line y2="65.815625" x2="190" y1="65.815625" x1="0" class="node-line-6"></line></g><g transform="translate(95, 10)"><text text-anchor="middle" dominant-baseline="middle" alignment-baseline="middle" dy="1em"><tspan dy="1em" x="0">Sem   08</tspan></text></g></g></g><g class="lineWrapper"><line stroke-dasharray="5,5" marker-end="url(#arrowhead)" stroke="black" stroke-width="2" y2="548.3093734741211" x2="1595" y1="115.815625" x1="1595"></line></g><g transform="translate(1500, 250)" class="eventWrapper"><g class="timeline-node section-6"><g><path d="M0 45 v-40 q0,-5 5,-5 h180 q5,0 5,5 v45 H0 Z" class="node-bkg node-undefined" id="node-undefined"></path><line y2="50" x2="190" y1="50" x1="0" class="node-line-6"></line></g><g transform="translate(95, 10)"><text text-anchor="middle" dominant-baseline="middle" alignment-baseline="middle" dy="1em"><tspan dy="1em" x="0">Frameworks   CSS</tspan></text></g></g></g><g transform="translate(1500, 310)" class="eventWrapper"><g class="timeline-node section-6"><g><path d="M0 45 v-40 q0,-5 5,-5 h180 q5,0 5,5 v45 H0 Z" class="node-bkg node-undefined" id="node-undefined"></path><line y2="50" x2="190" y1="50" x1="0" class="node-line-6"></line></g><g transform="translate(95, 10)"><text text-anchor="middle" dominant-baseline="middle" alignment-baseline="middle" dy="1em"><tspan dy="1em" x="0">Iteración</tspan></text></g></g></g><g transform="translate(1500, 370)" class="eventWrapper"><g class="timeline-node section-6"><g><path d="M0 45 v-40 q0,-5 5,-5 h180 q5,0 5,5 v45 H0 Z" class="node-bkg node-undefined" id="node-undefined"></path><line y2="50" x2="190" y1="50" x1="0" class="node-line-6"></line></g><g transform="translate(95, 10)"><text text-anchor="middle" dominant-baseline="middle" alignment-baseline="middle" dy="1em"><tspan dy="1em" x="0">Refactoring</tspan></text></g></g></g><g transform="translate(1700, 50)" class="taskWrapper"><g class="timeline-node section-7"><g><path d="M0 60.815625 v-55.815625 q0,-5 5,-5 h180 q5,0 5,5 v60.815625 H0 Z" class="node-bkg node-undefined" id="node-undefined"></path><line y2="65.815625" x2="190" y1="65.815625" x1="0" class="node-line-7"></line></g><g transform="translate(95, 10)"><text text-anchor="middle" dominant-baseline="middle" alignment-baseline="middle" dy="1em"><tspan dy="1em" x="0">Sem   09</tspan></text></g></g></g><g class="lineWrapper"><line stroke-dasharray="5,5" marker-end="url(#arrowhead)" stroke="black" stroke-width="2" y2="548.3093734741211" x2="1795" y1="115.815625" x1="1795"></line></g><g transform="translate(1700, 250)" class="eventWrapper"><g class="timeline-node section-7"><g><path d="M0 45 v-40 q0,-5 5,-5 h180 q5,0 5,5 v45 H0 Z" class="node-bkg node-undefined" id="node-undefined"></path><line y2="50" x2="190" y1="50" x1="0" class="node-line-7"></line></g><g transform="translate(95, 10)"><text text-anchor="middle" dominant-baseline="middle" alignment-baseline="middle" dy="1em"><tspan dy="1em" x="0">Cierre   Curso</tspan></text></g></g></g><text y="20" font-weight="bold" font-size="4ex" x="845">Planificación Curso Frontend</text><g class="lineWrapper"><line marker-end="url(#arrowhead)" stroke="black" stroke-width="4" y2="165.815625" x2="1940" y1="165.815625" x1="50"></line></g></svg>